<?xml version="1.0" encoding="UTF-8" standalone="no"?>
<!-- Creator: CorelDRAW -->

<svg
   xmlns:dc="http://purl.org/dc/elements/1.1/"
   xmlns:cc="http://creativecommons.org/ns#"
   xmlns:rdf="http://www.w3.org/1999/02/22-rdf-syntax-ns#"
   xmlns:svg="http://www.w3.org/2000/svg"
   xmlns="http://www.w3.org/2000/svg"
   xmlns:sodipodi="http://sodipodi.sourceforge.net/DTD/sodipodi-0.dtd"
   xmlns:inkscape="http://www.inkscape.org/namespaces/inkscape"
   xml:space="preserve"
   width="297mm"
   height="210mm"
   style="shape-rendering:geometricPrecision; text-rendering:geometricPrecision; image-rendering:optimizeQuality; fill-rule:evenodd; clip-rule:evenodd"
   viewBox="0 0 297 210"
   version="1.1"
   id="svg614"
   sodipodi:docname="rwanda_modified.svg"
   inkscape:version="0.92.2 (5c3e80d, 2017-08-06)"><metadata
     id="metadata618"><rdf:RDF><cc:Work
         rdf:about=""><dc:format>image/svg+xml</dc:format><dc:type
           rdf:resource="http://purl.org/dc/dcmitype/StillImage" /><dc:title></dc:title></cc:Work></rdf:RDF></metadata><sodipodi:namedview
     pagecolor="#ffffff"
     bordercolor="#666666"
     borderopacity="1"
     objecttolerance="10"
     gridtolerance="10"
     guidetolerance="10"
     inkscape:pageopacity="0"
     inkscape:pageshadow="2"
     inkscape:window-width="1440"
     inkscape:window-height="837"
     id="namedview616"
     showgrid="false"
     inkscape:zoom="1.012009"
     inkscape:cx="348.99317"
     inkscape:cy="331.25202"
     inkscape:window-x="1912"
     inkscape:window-y="-8"
     inkscape:window-maximized="1"
     inkscape:current-layer="Plan_x0020_1" /><defs
     id="defs4"><style
       type="text/css"
       id="style2"><![CDATA[
    .str2 {stroke:black;stroke-width:0.1;stroke-opacity:0.501961}
    .str0 {stroke:black;stroke-width:0.1}
    .str1 {stroke:#974578;stroke-width:0.2}
    .str3 {stroke:black;stroke-width:0.5}
    .fil1 {fill:none}
    .fil2 {fill:#96AEBE}
    .fil0 {fill:white}
    .fil7 {fill:#C2C1C1;fill-rule:nonzero}
    .fil8 {fill:white;fill-rule:nonzero}
    .fil6 {fill:black;fill-rule:nonzero}
    .fil4 {fill:#000066;fill-rule:nonzero}
    .fil5 {fill:white;fill-rule:nonzero;fill-opacity:0.501961}
    .fil3 {fill:white;fill-opacity:0.701961}
   ]]></style></defs><g
     id="Plan_x0020_1"><metadata
       id="CorelCorpID_0Corel-Layer" /><path
       class="fil0 str0"
       d="M120.662 98.054c1.0438,0.0138 2.0911,0.1147 2.947,0.6951 1.0669,0.7235 1.9256,2.0681 2.9745,2.9427l-0.1084 -0.0926c0.3769,0.2806 0.5236,0.457 0.7653,0.842 0.0917,0.1462 0.2077,0.3052 0.365,0.3838 0.2558,0.128 0.417,0.2922 0.7117,0.3655 0.268,0.0666 0.5925,0.0366 0.8759,0.0366l0 0 1.0401 -1.0966 0 0c-0.323,-0.408 -2.1802,-2.68 -1.8978,-3.0889 0.6361,-0.9214 1.5707,-1.6755 2.3358,-2.4857 0.5926,-0.6276 0.7513,-0.8279 1.5328,-0.2376 1.3096,0.989 2.275,0.2598 3.376,-0.4753 1.3701,-0.9146 3.0098,-1.175 4.4343,-1.9191 0.6048,-0.1297 1.2583,-0.3154 1.8249,-0.5666 0.7021,-0.3112 0.9732,-0.8243 1.1861,-1.5718 0.1625,-0.5703 0.1819,-1.2913 0.2555,-1.8826l0 0c-0.8133,-0.9643 -2.5803,-0.1899 -3.5677,-1.1789 -0.8746,-0.876 -1.2081,-2.6044 -1.1588,-3.7925 0.4829,-2.1194 -1.4667,-3.5247 -2.2901,-5.2639 -0.3049,-0.6442 0.2057,-0.8673 0.4288,-1.3617 0.4096,-0.4448 1.0878,-0.9005 0.9854,-1.5993 -0.0775,-0.5296 -0.8145,-0.961 -1.1131,-1.3799 -0.7961,-1.1171 -2.2837,-1.9093 -3.1844,-2.9427 -0.5387,-0.0589 -2.3085,0.4686 -2.3085,1.2063l0.0183 0.0092c0.0078,0.0274 0.0207,0.027 0.0365,0.0548 0.4994,0.0631 1.3139,0.5953 1.3139,1.1424 0,0.6539 -0.3101,2.0878 -0.803,2.5405 -0.1925,0.1769 -0.8896,0.807 -1.1314,0.7585 -0.5132,-0.643 -0.4492,-1.9933 -1.5237,-1.9557 -1.0508,-0.3091 -0.9353,-1.1924 -1.2227,-2.0562 -0.254,-0.7631 -1.2054,-1.3416 -1.8796,-1.6906l0 0 -2.2902 -0.2376c-0.5133,-0.1286 -0.7751,-0.711 -1.3777,-0.8134 -0.2689,-0.0457 -1.4753,-0.5799 -1.5785,-0.4478 -0.2599,0.3329 -0.3028,0.6319 -0.3559,1.0327 -0.0452,0.3405 -0.2339,1.0887 -0.5474,1.2611 -0.6006,0.3305 -1.0256,0.7879 -1.6424,1.0967l0 0c-0.1235,0.8823 -0.1262,1.7667 0.0182,2.6411 0.2197,0.6962 0.3706,0.6599 -0.0729,1.3342 -0.4337,0.6594 0.334,1.7504 0.6387,2.3121l1.4325 2.6411c0.5262,1.0341 0.5833,2.2126 0.9671,3.2899l0.5566 1.5627c0.2056,0.5771 0.5563,1.1062 0.6935,1.709 -0.1032,0.3786 0.5514,1.5121 0.7846,1.8551 0.7173,1.0551 -0.9178,1.0686 -1.3503,1.6176 -0.48,0.6091 -0.1035,1.876 -0.2829,2.641l-0.8116 2.1653 0 0z"
       id="Rulindo"
       inkscape:label="" /><path
       class="fil0 str0"
       d="M120.662 98.054c1.0438,0.0138 2.0911,0.1147 2.947,0.6951 1.0669,0.7235 1.9256,2.0681 2.9745,2.9427l-0.1084 -0.0926c0.3769,0.2806 0.5236,0.457 0.7653,0.842 0.0917,0.1462 0.2077,0.3052 0.365,0.3838 0.2558,0.128 0.417,0.2922 0.7117,0.3655 0.268,0.0666 0.5925,0.0366 0.8759,0.0366l0 0 0.7847 1.9557c0.5695,0.8411 0.6432,2.5113 0.8029,3.5092 0.2742,1.7125 1.1551,3.6532 0.2555,5.3553 -0.9938,1.8801 -2.9055,2.3933 -0.7117,4.4048l1.7287 0.8096 -0.0681 -0.0602c1.0065,0.8601 0.8959,2.037 1.1314,3.2351 0.2166,1.1021 -0.8488,1.9653 -1.7154,2.4857 -0.3662,0.2248 -0.5855,0.4915 -0.9854,0.6763 -0.6032,0.2789 -1.0371,0.3064 -1.0036,1.0784 0.0457,1.0537 -0.1288,1.9303 -0.3285,2.9426 -0.0731,0.371 -0.1642,0.6933 -0.1642,1.0784 0,0.292 0.1339,0.5115 0.1642,0.7859l-0.0913 0.3108 0 0c-0.5476,0 -1.875,-0.3668 -2.3905,-0.4936 -0.3491,-0.0858 -0.7589,-0.3242 -0.8759,-0.6762 -0.1324,-0.3981 -0.2118,-0.8025 -0.3285,-1.2063 -1.0375,-1.3863 -2.7737,-2.3048 -2.7737,-4.3318 -0.5478,-0.4375 -1.4201,0.332 -2.0621,-0.3107 -0.4973,-0.498 -0.9288,-1.3144 -1.3869,-1.8826 -0.3827,-0.4745 -0.0817,-0.7092 -0.1459,-1.2245 -0.6834,-0.2269 -1.9048,-0.1463 -2.6825,-0.1463 -1.2761,0 -1.1168,1.0792 -2.3541,1.0418l-3.011 -0.0913 0 0c-0.162,-0.2713 -0.2623,-0.6658 -0.4744,-0.9139 -0.231,-0.27 -0.446,-0.4375 -0.3102,-0.8225 0.1103,-0.3126 0.4221,-0.697 0.6569,-0.9321 0.524,-0.874 -1.4099,-1.0083 -0.365,-2.2299 0.364,-0.4257 0.9496,-1.7928 1.0584,-2.3395 -0.2039,-0.0679 -1.5146,-0.6219 -1.5146,-0.9504 0,-0.7298 0.5342,-0.9818 1.0584,-1.316 0.3647,-0.2326 -1.2859,-2.7778 -0.5474,-3.3264 0.3046,-0.2263 0.1978,-0.6754 0.1642,-1.0236 0,-0.7644 -0.0259,-0.9391 -0.5657,-1.4073 -0.468,-0.4058 -0.7707,-0.5468 -0.8029,-1.2246 -0.0617,-1.2951 0.0434,-2.5163 -0.2007,-3.7834 -0.1103,-0.5731 0.8552,-1.1551 1.2956,-1.4622 0.3842,-0.2678 0.5916,-0.7636 0.8288,-1.165l0.8498 -2.1067 0 0 1.5878 0.2559c1.1123,0.0954 2.0611,1.4762 3.2847,1.1149 0.9061,-0.2675 1.6403,-0.7859 2.6278,-0.7859 0.3444,0 0.6968,-0.0052 1.0494,-0.0006l0 0z"
       id="Kamonyi"
       inkscape:label="" /><path
       class="fil0 str0"
       d="M129.193 103.227l1.0401 -1.0966 0 0 1.1314 0.8499c0.233,0.3554 0.8548,0.6847 1.2044,0.923 0.5874,0.4006 0.7552,1.0363 1.2044,1.517 0.5543,0.593 1.2241,0.8682 2.0529,0.8682 0.3549,-0.0986 0.7126,-0.1495 1.0676,-0.2559 0.3255,-0.0975 0.6129,-0.1521 0.9306,-0.0457 0.2807,0.5598 0.146,1.146 0.146,1.7546l0 0 -0.8759 0.3747c-0.3527,0.32 -0.6542,0.5644 -0.9763,0.9139 -0.4099,0.445 -0.6442,1.0405 -0.9763,1.5353 -0.3031,0.4518 -0.2217,0.9416 0.073,1.3708 1.0602,0.3937 2.3444,0.6057 2.9106,1.6998 0.462,0.8927 0.4505,3.0901 0.639,4.0889l0 0c-0.1093,0.0403 -0.2114,0.0925 -0.3014,0.1605 -0.3856,0.2912 -0.7689,0.8584 -1.3139,0.7677 -0.488,-0.0811 -0.8002,-0.4808 -1.2408,-0.6763 -1.5371,-0.6818 -2.7312,0.4291 -3.9234,1.2246l0.0681 0.0602 -1.7287 -0.8096c-2.1938,-2.0115 -0.2821,-2.5247 0.7117,-4.4048 0.8996,-1.7021 0.0187,-3.6428 -0.2555,-5.3553 -0.1597,-0.9979 -0.2334,-2.6681 -0.8029,-3.5092l-0.7847 -1.9557 0 0z"
       id="Nyarugenge"
       inkscape:label="" /><path
       class="fil0 str0"
       d="M93.9189 71.79l2.1898 -0.0914c0.8391,0.1766 1.5029,0.2738 1.7972,-0.6854 0.3049,-0.9941 0.8146,-2.8749 2.2355,-2.5953 1.4357,0.2824 2.271,0.7852 3.2117,1.8734l1.7245 1.1058c0.2343,0.1501 0.64,0.4935 0.9215,0.4935 0.0631,-0.2512 -0.0163,-0.5861 0.0092,-0.8499 0.0499,-0.5169 0.0665,-1.0663 0.0365,-1.581 -0.0289,-0.4949 -0.1492,-1.0806 0.1003,-1.5353l1.0584 -1.38 0 0 0.0457 -0.6762c0,-0.7346 -0.3376,-1.4204 -0.3376,-2.1842 0,-0.7698 -0.7619,-1.4836 -1.1497,-2.111 -0.3484,-0.5593 -0.1902,-1.1528 -1.031,-0.7677 -0.7708,0.3529 -0.9877,0.9142 -1.5877,0.128 -1.1717,-1.535 -1.9491,-2.7538 -3.9873,-3.2443 -0.7417,-0.1785 -2.7901,-0.7703 -2.3267,-1.9465 0,-0.3792 -0.1732,-0.8418 -0.2463,-1.2154 -0.0633,-0.3241 -0.1004,-0.6814 -0.1004,-1.0144 0,-0.5516 -0.1409,-1.4528 0.2737,-1.8826l0.0671 -1.7569 0 0c-0.8676,0.1486 -1.7772,0.1603 -2.6401,0.249l-2.7555 0.2833c-0.5703,0.0586 -1.0959,-0.124 -1.6329,-0.2742l0 0c-0.0675,0.1969 -0.0697,0.6525 -0.2559,0.7768 -0.1787,0.1192 -0.9338,-0.6006 -1.1679,-0.7036 -0.2462,-0.1082 -0.8038,-0.2018 -1.031,0 -0.1347,0.1195 -0.2144,0.43 -0.4836,0.2558 -0.3699,-0.2392 -0.5187,-0.1012 -0.6752,0.2742 -0.0646,0.1551 -0.2721,0.1469 -0.4015,0.2285 -0.1536,0.0967 -0.2481,0.4507 -0.3284,0.6123 -0.234,0.3812 -1.1853,0.7564 -1.615,0.7402 -0.969,-0.0366 -0.4442,0.7632 -0.7391,1.2063 -0.2444,0.3671 -0.6246,0.346 -0.7026,0.9139 -0.1002,0.7301 -0.6599,0.067 -0.9033,0.0548 -0.7456,-0.0373 -0.1213,1.0328 -0.7755,1.1332 -0.3646,0.056 -0.5529,0.268 -0.657,0.6214 -0.1308,0.4439 -0.1898,0.7656 -0.7025,0.8316l-4.033 5.008 0 0 1.0224 2.1202c1.3817,1.8447 3.5726,3.7407 5.4928,5.008 1.3082,0.8635 2.3023,0.9404 3.8321,0.8225 0.6093,-0.047 1.3458,-0.0987 1.9344,0.0548 0.6719,0.1752 0.7297,0.587 1.1861,0.9139 0.7292,0.6044 1.6027,1.0957 2.5913,0.9687 0.7355,-0.0945 1.8194,-0.422 2.5365,-0.1828l0 0z"
       id="Musanze"
       inkscape:label="" /><path
       class="fil0 str0"
       d="M112.113 97.4697l1.5878 0.2559c1.1123,0.0954 2.0611,1.4762 3.2847,1.1149 0.9061,-0.2675 1.6403,-0.7859 2.6278,-0.7859 0.3444,0 0.6968,-0.0052 1.0494,-0.0006l0 0 0.8116 -2.1653c0.1794,-0.765 -0.1971,-2.0319 0.2829,-2.641 0.4325,-0.549 2.0676,-0.5625 1.3503,-1.6176 -0.2332,-0.343 -0.8878,-1.4765 -0.7846,-1.8551 -0.1372,-0.6028 -0.4879,-1.1319 -0.6935,-1.709l-0.5566 -1.5627c-0.3838,-1.0773 -0.4409,-2.2558 -0.9671,-3.2899l-1.4325 -2.6411c-0.3047,-0.5617 -1.0724,-1.6527 -0.6387,-2.3121 0.4435,-0.6743 0.2926,-0.638 0.0729,-1.3342 -0.1444,-0.8744 -0.1417,-1.7588 -0.0182,-2.6411l0 0c-0.2048,-0.1198 -0.4951,-0.2802 -0.6296,-0.4752 -0.1592,-0.2306 -0.3077,-0.4353 -0.4836,-0.6489 -0.3988,-0.4845 -0.7173,-1.2185 -0.7299,-1.846 -0.2609,-0.9823 -0.8334,-1.0555 -1.6059,-1.5536 -0.9018,-0.5816 -0.1068,-1.1057 -1.3686,-1.1057 -0.6917,0 -0.9102,0.0898 -1.5785,0.3472 -0.6747,0.2598 -1.6325,0.0556 -2.272,-0.3107 -0.8995,-0.5154 -1.1609,-1.8642 -2.2172,-2.1476l0 0 -1.0584 1.38c-0.2495,0.4547 -0.1292,1.0404 -0.1003,1.5353 0.03,0.5147 0.0134,1.0641 -0.0365,1.581 -0.0255,0.2638 0.0539,0.5987 -0.0092,0.8499 -0.2815,0 -0.6872,-0.3434 -0.9215,-0.4935l-1.7245 -1.1058c-0.9407,-1.0882 -1.776,-1.591 -3.2117,-1.8734 -1.4209,-0.2796 -1.9306,1.6012 -2.2355,2.5953 -0.2943,0.9592 -0.9581,0.862 -1.7972,0.6854l-2.1898 0.0914 0 0c0.0319,1.0256 0.4637,2.2725 0.5657,3.3631 0.2976,3.1804 -0.1031,6.3708 0.292,9.5407l0 0 2.792 1.444 0 0c1.3447,-0.2247 2.9086,-0.2209 4.1242,0.3655 0.9792,0.4723 2.0981,0.3337 2.9927,0.7677 1.0992,0.5331 2.1119,2.6917 2.9198,3.692 0.4969,0.6154 0.6331,1.307 1.0401,1.9557 0.4355,0.6943 1.3021,0.9884 1.5694,1.7911 -0.0097,0.357 0.2065,0.6583 0.3285,0.987 0.2295,0.6185 0.9133,1.6086 1.5693,1.7729l0 0z"
       id="Gakenke"
       inkscape:label="" /><path
       class="fil0 str0"
       d="M96.8233 49.8732l-0.0671 1.7569c-0.4146,0.4298 -0.2737,1.331 -0.2737,1.8826 0,0.333 0.0371,0.6903 0.1004,1.0144 0.0731,0.3736 0.2463,0.8362 0.2463,1.2154 -0.4634,1.1762 1.585,1.768 2.3267,1.9465 2.0382,0.4905 2.8156,1.7093 3.9873,3.2443 0.6,0.7862 0.8169,0.2249 1.5877,-0.128 0.8408,-0.3851 0.6826,0.2084 1.031,0.7677 0.3878,0.6274 1.1497,1.3412 1.1497,2.111 0,0.7638 0.3376,1.4496 0.3376,2.1842l-0.0457 0.6762 0 0c1.0563,0.2834 1.3177,1.6322 2.2172,2.1476 0.6395,0.3663 1.5973,0.5705 2.272,0.3107 0.6683,-0.2574 0.8868,-0.3472 1.5785,-0.3472 1.2618,0 0.4668,0.5241 1.3686,1.1057 0.7725,0.4981 1.345,0.5713 1.6059,1.5536 0.0126,0.6275 0.3311,1.3615 0.7299,1.846 0.1759,0.2136 0.3244,0.4183 0.4836,0.6489 0.1345,0.195 0.4248,0.3554 0.6296,0.4752l0 0c0.6168,-0.3088 1.0418,-0.7662 1.6424,-1.0967 0.3135,-0.1724 0.5022,-0.9206 0.5474,-1.2611 0.0531,-0.4008 0.096,-0.6998 0.3559,-1.0327 0.1032,-0.1321 1.3096,0.4021 1.5785,0.4478 0.6026,0.1024 0.8644,0.6848 1.3777,0.8134l2.2902 0.2376 0 0c0.0789,-0.5219 -0.0957,-0.9639 -0.2555,-1.4439 -0.1633,-0.4909 0.073,-0.6425 0.073,-1.0967 0,-0.2479 -0.1556,-0.6876 0.2829,-0.5666 0.3419,0.0944 0.6086,0.0432 0.9489,-0.0091 0.6043,-0.0928 1.677,1.885 2.0439,1.4713 0.1049,-0.1184 0.1005,-0.5573 0.1551,-0.7311 0.2448,-0.7796 0.8603,-1.287 0.1642,-1.9831 -0.4038,-0.5627 -2.684,-2.3609 -2.3541,-3.1071 0.2727,-0.617 1.445,-0.6728 2.0621,-0.8316 0.687,-0.1767 1.4603,-0.8955 0.8851,-1.6176 -0.3264,-0.2593 -1.5055,-0.5822 -1.5055,-1.0144 0.5341,-0.5341 0.5931,-1.2079 0.5931,-1.9374 0,-0.2695 0.0345,-0.5525 0,-0.8133 -0.0372,-0.281 -0.3844,-1.0709 -0.401,-1.3249l0 0c-0.247,0.1864 -0.5164,0.3421 -0.8217,0.4476 -0.9383,0.3242 -1.7542,-0.4632 -2.6369,0.2193 -0.4206,0.3251 -1.0743,1.1216 -1.6698,1.0509 -0.7492,-0.0889 -1.5318,-0.8542 -2.1259,-1.2794 -0.4044,-0.2893 -1.9312,-2.6536 -1.8979,-3.0797 -0.1848,-0.5204 -0.5291,-1.1087 -0.52,-1.6541l0.0273 -1.6267c0.0122,-0.7321 0.0635,-2.4696 -0.3284,-3.0706 -0.3377,-0.5181 -1.4241,-0.7605 -1.5968,-1.2794 -1.0931,-1.0101 -0.7514,-1.233 -0.9854,-2.5314 -0.1083,-0.6006 -1.4363,-0.9505 -1.9982,-0.9505 -1.5114,0 -3.1214,1.1342 -3.1388,2.696l-0.0182 1.6358c-0.0115,1.0339 -2.4564,-1.4026 -2.7829,-1.6724 -0.345,-0.285 -0.7548,-0.211 -1.1314,-0.3655 -1.7286,0.0608 -3.0389,-0.4777 -4.6625,0.3107 -1.2244,0.5946 -1.9513,1.8314 -2.6826,2.9243 -0.3317,0.4958 -1.5361,0.665 -2.1259,0.5666 -0.2142,0.0593 -0.4327,0.1062 -0.6538,0.144l0 0z"
       id="Burera"
       inkscape:label="" /><path
       class="fil0 str0"
       d="M49.4431 89.1726l2.8539 0.0396c1.1112,-0.0826 2.4067,0.1029 3.546,0.1241 1.0424,0.0193 2.2226,-0.1914 3.2574,-0.3564 1.0834,-0.4235 1.4758,-0.0603 2.1898,-1.2063 0.7078,-1.1358 1.5909,-1.9613 3.0475,-1.6633 0.6554,0.1341 1.2143,0.5458 1.8796,0.6397 0.9526,0.1344 1.7041,-0.184 2.4727,-0.6854 0.4554,-0.6016 0.6712,-2.2727 1.7427,-2.0287 0.3091,0.0704 0.7379,0.4404 1.0219,0.6123 0.3429,0.2077 0.7269,0.3317 1.1223,0.4021l1.0037 0.2833 0 0c0.3033,-0.9167 -0.8991,-1.9955 0.4106,-2.4492 1.0603,-0.3674 1.258,-2.0671 1.0675,-3.0158 -0.1748,-0.1 -1.0951,0.2196 -1.3412,0.2742 -0.3544,0.0785 -1.1928,-0.2181 -1.5694,-0.3199 -0.9643,-0.2606 -0.4015,-1.1314 0.0547,-1.5901 0.0152,-0.1361 0.0469,-0.1366 0.0092,-0.2924 -0.1786,-0.5351 -0.6205,-1.152 -0.6205,-1.7273 0,-0.6972 0.4341,-0.6326 1.0037,-0.7767 0.4909,-0.1243 0.4236,-2.4376 0.4014,-2.9061 -0.0131,-0.2757 -0.4409,-0.2531 -0.6295,-0.4113 -0.4004,-0.3357 -0.3267,-0.4084 -0.4654,-0.8864 0.111,-0.8462 0.1863,-1.4119 -0.4288,-2.038 -0.3907,-0.3978 -2.1583,-0.3951 -1.907,-1.1514 0.1226,-0.3689 0.0246,-0.9651 0.4106,-1.1424 0.5282,-0.2425 1.3158,0.5414 1.5603,-0.4112 0.1898,-0.7394 0.4562,-1.9324 0.4562,-2.6868l0.1919 -1.6361 0 0 -4.9092 0.1282c-0.6334,0.5853 -0.7639,1.1298 -0.8759,1.9557 -0.1334,0.9843 -0.676,1.1361 -1.4325,1.5444 -0.551,0.2973 -0.8343,0.8077 -1.0584,1.38 -0.1108,0.2828 -0.1462,0.7526 -0.3376,0.9778 -0.0689,1.1646 -0.92,1.2093 -1.2409,2.2116 -0.3726,1.1634 -1.2571,0.9708 -1.6333,1.9465 -0.1084,0.2811 -0.4739,0.417 -0.7299,0.5392 -0.7425,0.3547 -1.7249,0.7643 -2.2628,1.4165 -0.2573,0.3119 -0.452,0.9038 -0.7482,1.1241 -0.1462,0.5835 -0.3304,1.0709 -0.5475,1.6175 -0.1986,0.4998 -0.7938,0.6922 -1.104,1.0601 -0.3186,0.3777 0.0182,2.135 0.0182,2.6868 0,0.5535 -0.4785,1.4895 -0.958,1.7546l-4.9218 6.6629 0 0z"
       id="Rubavu"
       inkscape:label="" /><path
       class="fil0 str0"
       d="M72.1849 62.1667l3.1384 -0.082 0 0 1.0224 2.1202c1.3817,1.8447 3.5726,3.7407 5.4928,5.008 1.3082,0.8635 2.3023,0.9404 3.8321,0.8225 0.6093,-0.047 1.3458,-0.0987 1.9344,0.0548 0.6719,0.1752 0.7297,0.587 1.1861,0.9139 0.7292,0.6044 1.6027,1.0957 2.5913,0.9687 0.7355,-0.0945 1.8194,-0.422 2.5365,-0.1828l0 0c0.0319,1.0256 0.4637,2.2725 0.5657,3.3631 0.2976,3.1804 -0.1031,6.3708 0.292,9.5407l0 0c-0.3886,0.366 -1.3207,0.8514 -1.7978,1.0967 -0.5371,0.2762 -1.0059,0.5073 -1.6059,0.6214 -1.2342,0.2347 -2.3973,-0.6133 -3.6314,-0.4112 -1.007,0.1 -2.1411,-0.0037 -3.1205,0.2193 -0.8011,0.1825 -1.0696,1.3308 -1.7336,1.782 -0.6875,0.467 -1.2008,0.4392 -1.9618,0.5758 -2.0243,0.2375 -3.2476,-0.9225 -4.0055,-2.632l-2.2993 -0.4021 0 0 -1.0402 -0.2101 0 0c0.3033,-0.9167 -0.8991,-1.9955 0.4106,-2.4492 1.0603,-0.3674 1.258,-2.0671 1.0675,-3.0158 -0.1748,-0.1 -1.0951,0.2196 -1.3412,0.2742 -0.3544,0.0785 -1.1928,-0.2181 -1.5694,-0.3199 -0.9643,-0.2606 -0.4015,-1.1314 0.0547,-1.5901 0.0152,-0.1361 0.0469,-0.1366 0.0092,-0.2924 -0.1786,-0.5351 -0.6205,-1.152 -0.6205,-1.7273 0,-0.6972 0.4341,-0.6326 1.0037,-0.7767 0.4909,-0.1243 0.4236,-2.4376 0.4014,-2.9061 -0.0131,-0.2757 -0.4409,-0.2531 -0.6295,-0.4113 -0.4004,-0.3357 -0.3267,-0.4084 -0.4654,-0.8864 0.111,-0.8462 0.1863,-1.4119 -0.4288,-2.038 -0.3907,-0.3978 -2.1583,-0.3951 -1.907,-1.1514 0.1226,-0.3689 0.0246,-0.9651 0.4106,-1.1424 0.5282,-0.2425 1.3158,0.5414 1.5603,-0.4112 0.1898,-0.7394 0.4562,-1.9324 0.4562,-2.6868l0.1919 -1.6361 0 0z"
       id="Nyabihu"
       inkscape:label="" /><path
       class="fil0 str0"
       d="M47.1075 126.757l10.3687 -0.0256c0.5899,0.9619 0.8522,2.1103 1.4057,3.0889 0.6942,1.2271 1.5109,2.1739 2.7373,2.7964 0.3094,0.1571 1.0987,0.2563 0.8394,0.6763 -0.4482,0.7256 -0.5474,1.0405 -0.5474,1.9191 0.5884,1.1648 0.5195,2.7509 0.5195,4.0393 0.1056,1.3979 0.7038,3.2356 1.3423,4.5145l0 0c0.1755,-0.4683 0.9604,-1.681 1.3869,-1.9374 1.0172,-0.6114 3.0442,-1.1846 4.1971,-0.8042 0.8411,0.2776 2.0599,0.1006 2.2993,-0.859 0.9816,-0.6943 1.8068,-1.3174 3.1022,-1.1698 1.4016,0.1598 2.9393,-0.0557 4.1789,-0.6763 0.7995,-0.4003 1.3064,-1.2441 2.0438,-1.7363 0.865,-0.5775 2.0292,-1.5452 2.7373,-2.303l3.2482 -1.718 0 0c1.1911,-0.5119 4.1461,-1.2729 4.8175,-2.4309 0.8149,-1.4052 -1.4621,-2.6146 -1.0036,-4.2769 0.2715,-0.9841 1.4621,-1.4282 2.1168,-2.1568l0 0 0.2554 -2.6319 0 0c-0.2508,-1.0054 -0.599,-2.5799 -1.6886,-2.8787 -0.3881,-0.1064 -0.7877,-0.0919 -1.1588,-0.2467 -0.9503,0 -1.8869,-0.1105 -2.8468,-0.0457 -0.6895,0.0466 -1.7358,-0.0055 -2.3449,-0.329 -0.2801,-0.1488 -0.451,-0.9478 -0.511,-1.2429l0 0 -0.6387 0.2376c-0.7289,0.5163 -1.5997,1.1062 -2.5092,1.0875 -0.8714,-0.018 -2.1587,-0.6904 -2.792,-1.2702 -0.4216,-0.3861 -0.76,-1.1972 -1.3504,-1.1972 -0.3501,0 -0.9002,0.1261 -1.2044,0.3016 -2.2173,1.3304 -4.9056,-0.0106 -6.9709,-1.0601 -0.8576,-0.4358 -1.2422,-0.41 -2.2081,-0.393l-2.9654 0.5392c-0.9117,0.1658 -1.9039,0.0498 -2.8285,0.0366 -0.5426,-0.0078 -1.2484,-0.1339 -1.761,-0.0732l-8.8597 -0.0913 -3.3113 0.3928 0 0 0.4737 1.8736c0.1337,0.5291 0.4172,1.145 0.4288,1.6906 0.4347,2.1835 0.7165,5.3617 -0.5018,7.3566l-0.4963 1.0035 0 0z"
       id="Karongi"
       inkscape:label="" /><path
       class="fil0 str0"
       d="M92.8974 123.698c-0.6547,0.7286 -1.8453,1.1727 -2.1168,2.1568 -0.4585,1.6623 1.8185,2.8717 1.0036,4.2769 -0.6714,1.158 -3.6264,1.919 -4.8175,2.4309l0 0 1.3678 1.7912c0.1027,0.4689 0.6531,1.3986 1.0585,1.6541 0.2559,0.1614 0.4407,0.3964 0.739,0.5117 0.1285,0.0496 0.2408,0.1003 0.3559,0.1737 0.1064,0.068 0.2118,0.2209 0.3284,0.2467l0 0c0.3096,-0.1103 1.8808,-0.2818 2.1078,-0.0548 0.2225,0.2225 0.1878,0.581 0.447,0.7402 0.5233,0.3212 1.0037,0.2815 1.0037,-0.4204 0,-0.2341 0.1151,-0.6795 0.4106,-0.6945 0.1928,-0.0097 0.3086,0.362 0.4288,0.4935 0.309,0.2238 0.5606,0.9016 1.0493,0.4386 0.1958,-0.1856 0.6639,-0.8664 0.9216,-0.8499 0.1434,0.0092 0.3717,0.6857 0.4927,0.8316 0.2123,0.2557 0.5532,0.4828 0.7299,0.7586 0.3299,0.5152 0.4063,1.08 0.9855,0.329 0.4265,-0.5529 0.8079,-0.5693 0.8668,-1.3891 0.0281,-0.3924 -0.0755,-1.8756 0.6569,-1.5171 0.9061,0.4434 1.7578,0.4089 2.7373,0.2742 0.4737,-0.0113 1.1279,-0.4519 1.3048,0.1005 0.3698,1.1551 4.0298,3.7451 5.2738,3.0158 1.1348,-0.6652 -0.0115,-1.7892 1.6789,-1.4256 0.4789,0.103 0.8914,0.0727 1.2409,0.4569 0.2474,0.2718 0.2865,0.6407 0.6752,0.8225 1.0484,1.2606 2.684,1.1639 4.2063,0.859l2.2354 -0.4478c0.4599,-0.0921 1.2713,-0.1039 1.5876,-0.466 0,-0.3203 -0.5777,-1.0166 -0.6843,-1.3983 -0.1875,-0.6718 -0.3741,-1.1408 -0.3741,-1.8643 0.3389,-0.3265 0.5447,-0.6027 1.0402,-0.7493 0.601,-0.1777 1.2822,0.2896 1.9069,0.329 0.4329,0.0272 0.8265,-0.0719 1.2501,-0.1006 0.4604,-0.0311 0.9287,-0.0102 1.3869,-0.0639l2.555 0.3198 0 0c0.0864,-0.2603 0.2733,-0.4659 0.3832,-0.7128 0.0886,-0.1992 0.16,-0.3611 0.219,-0.5666 0.1026,-0.3578 0.0591,-0.818 -0.0548,-1.188 -0.1175,-0.3815 -0.3807,-0.6465 -0.4927,-1.0052l0 0c-0.5476,0 -1.875,-0.3668 -2.3905,-0.4936 -0.3491,-0.0858 -0.7589,-0.3242 -0.8759,-0.6762 -0.1324,-0.3981 -0.2118,-0.8025 -0.3285,-1.2063 -1.0375,-1.3863 -2.7737,-2.3048 -2.7737,-4.3318 -0.5478,-0.4375 -1.4201,0.332 -2.0621,-0.3107 -0.4973,-0.498 -0.9288,-1.3144 -1.3869,-1.8826 -0.3827,-0.4745 -0.0817,-0.7092 -0.1459,-1.2245 -0.6834,-0.2269 -1.9048,-0.1463 -2.6825,-0.1463 -1.2761,0 -1.1168,1.0792 -2.3541,1.0418l-3.011 -0.0913 0 0 -0.2559 0.6945 -0.6569 1.1423c-0.1983,0.3448 -0.2729,1.1138 -0.6479,1.316 -0.5965,0.3215 -2.2428,-0.5479 -2.8741,-0.7859 -0.7278,-0.2745 -1.4073,-0.2514 -1.834,-0.987 -0.5471,-0.9434 -1.0561,-1.5759 -2.3176,-1.1972 -0.7002,0.2456 -1.2854,1.1382 -2.0438,0.9687 -0.643,-0.1438 -1.2408,-0.5709 -1.5329,-1.1423 -0.2411,-0.4719 -0.0809,-0.6558 -0.7025,-0.7859 -0.7014,-0.1467 -1.0289,0.5726 -1.1953,1.1149 -0.3371,1.099 -0.9426,0.689 -1.8522,0.7585l-2.1709 0.1279 0 0z"
       id="Ruhango"
       inkscape:label="" /><path
       class="fil0 str0"
       d="M97.5686 86.1378c1.3447,-0.2247 2.9086,-0.2209 4.1242,0.3655 0.9792,0.4723 2.0981,0.3337 2.9927,0.7677 1.0992,0.5331 2.1119,2.6917 2.9198,3.692 0.4969,0.6154 0.6331,1.307 1.0401,1.9557 0.4355,0.6943 1.3021,0.9884 1.5694,1.7911 -0.0097,0.357 0.2065,0.6583 0.3285,0.987 0.2295,0.6185 0.9133,1.6086 1.5693,1.7729l0 0 -0.8498 2.1067c-0.2372,0.4014 -0.4446,0.8972 -0.8288,1.165 -0.4404,0.3071 -1.4059,0.8891 -1.2956,1.4622 0.2441,1.2671 0.139,2.4883 0.2007,3.7834 0.0322,0.6778 0.3349,0.8188 0.8029,1.2246 0.5398,0.4682 0.5657,0.6429 0.5657,1.4073 0.0336,0.3482 0.1404,0.7973 -0.1642,1.0236 -0.7385,0.5486 0.9121,3.0938 0.5474,3.3264 -0.5242,0.3342 -1.0584,0.5862 -1.0584,1.316 0,0.3285 1.3107,0.8825 1.5146,0.9504 -0.1088,0.5467 -0.6944,1.9138 -1.0584,2.3395 -1.0449,1.2216 0.889,1.3559 0.365,2.2299 -0.2348,0.2351 -0.5466,0.6195 -0.6569,0.9321 -0.1358,0.385 0.0792,0.5525 0.3102,0.8225 0.2121,0.2481 0.3124,0.6426 0.4744,0.9139l0 0 -0.2559 0.6945 -0.6569 1.1423c-0.1983,0.3448 -0.2729,1.1138 -0.6479,1.316 -0.5965,0.3215 -2.2428,-0.5479 -2.8741,-0.7859 -0.7278,-0.2745 -1.4073,-0.2514 -1.834,-0.987 -0.5471,-0.9434 -1.0561,-1.5759 -2.3176,-1.1972 -0.7002,0.2456 -1.2854,1.1382 -2.0438,0.9687 -0.643,-0.1438 -1.2408,-0.5709 -1.5329,-1.1423 -0.2411,-0.4719 -0.0809,-0.6558 -0.7025,-0.7859 -0.7014,-0.1467 -1.0289,0.5726 -1.1953,1.1149 -0.3371,1.099 -0.9426,0.689 -1.8522,0.7585l-2.1709 0.1279 0 0 0.2554 -2.6319 0 0c3.5308,-0.2071 0.8679,-6.0928 1.1497,-7.9872 0.0819,-0.5507 0.2742,-2.2233 0.6934,-2.5954 0.8511,-0.7557 2.3834,-1.2325 3.3942,-1.9557 1.0263,-1.9064 -1.8696,-2.1078 -1.0584,-3.7834 0.7992,-1.6511 1.3444,-2.6754 1.0402,-4.6059 -0.1602,-1.0167 -0.6461,-2.4997 -0.073,-3.4361l0.1095 -4.3866c0.0187,-0.7545 0.1479,-2.1364 -0.2373,-2.7599 -0.2354,-0.3809 -0.6802,-0.9402 -0.7039,-1.3724l0.1014 -2.0454 0 0z"
       id="Muhanga"
       inkscape:label="" /><path
       class="fil0 str0"
       d="M74.6208 85.5437c0.123,0.556 0.5136,1.1394 0.8759,1.5719 0.2447,0.292 0.4083,0.6442 0.6022,0.9596 0.095,0.1544 0.3251,0.3317 0.1551,0.5117 -0.2917,0.3091 -0.3225,0.5554 -0.511,0.9048 -0.279,0.5173 -0.8976,0.6292 -1.4325,0.7219 -0.4702,0.2512 -1.2349,0.377 -1.6241,0.7677 -0.112,0.1124 0.7415,1.0111 0.8759,1.1332 0.7099,0.6444 1.1145,1.2946 1.4782,2.175 0.3623,0.8767 0.8493,1.6579 1.177,2.5497 0.3913,0.648 0.4813,1.6885 0.8029,2.4126l1.542 3.4727c0.3675,0.8275 2.3527,1.0538 3.1297,1.3525 0.3536,0.1883 0.7839,1.0968 1.0858,1.4439 0.5688,0.6537 0.7623,1.3884 1.0401,2.1933 0.1452,0.4206 -0.155,0.6233 -0.3649,0.9321 -0.2786,0.4097 -0.3103,0.6272 -0.3103,1.115 0.4872,1.2053 1.4894,2.0109 2.491,2.7781 0.3853,0.2952 0.7759,0.291 1.0493,0.7402 0.0923,0.1518 0.3591,0.6543 0.3923,0.8225 -0.317,0.3187 -0.9179,0.274 -1.104,0.7403 -0.2352,0.5897 -0.2234,0.8514 -0.8395,1.1423l-0.5292 0.3381 0 0c0.06,0.2951 0.2309,1.0941 0.511,1.2429 0.6091,0.3235 1.6554,0.3756 2.3449,0.329 0.9599,-0.0648 1.8965,0.0457 2.8468,0.0457 0.3711,0.1548 0.7707,0.1403 1.1588,0.2467 1.0896,0.2988 1.4378,1.8733 1.6886,2.8787l0 0c3.5308,-0.2071 0.8679,-6.0928 1.1497,-7.9872 0.0819,-0.5507 0.2742,-2.2233 0.6934,-2.5954 0.8511,-0.7557 2.3834,-1.2325 3.3942,-1.9557 1.0263,-1.9064 -1.8696,-2.1078 -1.0584,-3.7834 0.7992,-1.6511 1.3444,-2.6754 1.0402,-4.6059 -0.1602,-1.0167 -0.6461,-2.4997 -0.073,-3.4361l0.1095 -4.3866c0.0187,-0.7545 0.1479,-2.1364 -0.2373,-2.7599 -0.2354,-0.3809 -0.6802,-0.9402 -0.7039,-1.3724l0.1014 -2.0454 0 0 -2.792 -1.444 0 0c-0.3886,0.366 -1.3207,0.8514 -1.7978,1.0967 -0.5371,0.2762 -1.0059,0.5073 -1.6059,0.6214 -1.2342,0.2347 -2.3973,-0.6133 -3.6314,-0.4112 -1.007,0.1 -2.1411,-0.0037 -3.1205,0.2193 -0.8011,0.1825 -1.0696,1.3308 -1.7336,1.782 -0.6875,0.467 -1.2008,0.4392 -1.9618,0.5758 -2.0243,0.2375 -3.2476,-0.9225 -4.0055,-2.632l-2.2993 -0.4021 0 0z"
       id="Ngororero"
       inkscape:label="" /><path
       class="fil0 str0"
       d="M73.5806 85.3336l1.0402 0.2101 0 0c0.123,0.556 0.5136,1.1394 0.8759,1.5719 0.2447,0.292 0.4083,0.6442 0.6022,0.9596 0.095,0.1544 0.3251,0.3317 0.1551,0.5117 -0.2917,0.3091 -0.3225,0.5554 -0.511,0.9048 -0.279,0.5173 -0.8976,0.6292 -1.4325,0.7219 -0.4702,0.2512 -1.2349,0.377 -1.6241,0.7677 -0.112,0.1124 0.7415,1.0111 0.8759,1.1332 0.7099,0.6444 1.1145,1.2946 1.4782,2.175 0.3623,0.8767 0.8493,1.6579 1.177,2.5497 0.3913,0.648 0.4813,1.6885 0.8029,2.4126l1.542 3.4727c0.3675,0.8275 2.3527,1.0538 3.1297,1.3525 0.3536,0.1883 0.7839,1.0968 1.0858,1.4439 0.5688,0.6537 0.7623,1.3884 1.0401,2.1933 0.1452,0.4206 -0.155,0.6233 -0.3649,0.9321 -0.2786,0.4097 -0.3103,0.6272 -0.3103,1.115 0.4872,1.2053 1.4894,2.0109 2.491,2.7781 0.3853,0.2952 0.7759,0.291 1.0493,0.7402 0.0923,0.1518 0.3591,0.6543 0.3923,0.8225 -0.317,0.3187 -0.9179,0.274 -1.104,0.7403 -0.2352,0.5897 -0.2234,0.8514 -0.8395,1.1423l-0.5292 0.3381 0 0 -0.6387 0.2376c-0.7289,0.5163 -1.5997,1.1062 -2.5092,1.0875 -0.8714,-0.018 -2.1587,-0.6904 -2.792,-1.2702 -0.4216,-0.3861 -0.76,-1.1972 -1.3504,-1.1972 -0.3501,0 -0.9002,0.1261 -1.2044,0.3016 -2.2173,1.3304 -4.9056,-0.0106 -6.9709,-1.0601 -0.8576,-0.4358 -1.2422,-0.41 -2.2081,-0.393l-2.9654 0.5392c-0.9117,0.1658 -1.9039,0.0498 -2.8285,0.0366 -0.5426,-0.0078 -1.2484,-0.1339 -1.761,-0.0732l-8.8597 -0.0913 -3.3113 0.3928 0 0 -0.9497 -3.7559 -2.3267 -5.9767c0,-2.8265 -0.093,-5.4965 0.6661,-8.2522 0.5619,-1.1269 0.8677,-2.3395 1.6515,-3.3996l1.0675 -1.4439c0.4319,-0.5841 1.0548,-1.2089 1.396,-1.8369l0.7353 -0.9953 0 0 2.8539 0.0396c1.1112,-0.0826 2.4067,0.1029 3.546,0.1241 1.0424,0.0193 2.2226,-0.1914 3.2574,-0.3564 1.0834,-0.4235 1.4758,-0.0603 2.1898,-1.2063 0.7078,-1.1358 1.5909,-1.9613 3.0475,-1.6633 0.6554,0.1341 1.2143,0.5458 1.8796,0.6397 0.9526,0.1344 1.7041,-0.184 2.4727,-0.6854 0.4554,-0.6016 0.6712,-2.2727 1.7427,-2.0287 0.3091,0.0704 0.7379,0.4404 1.0219,0.6123 0.3429,0.2077 0.7269,0.3317 1.1223,0.4021l1.0037 0.2833 0 0z"
       id="Rutsiro"
       inkscape:label="" /><path
       class="fil0 str0"
       d="M156.858 124.347c0.352,-0.0381 0.4305,0.3107 0.7026,0.3107l2.8924 -2.1567c1.0961,-0.8173 2.1512,-1.762 3.4125,-2.3304 0.8921,-0.3098 1.525,-0.6932 2.5,-0.7951 0.6328,-0.0662 1.39,-0.1158 2.0256,-0.0548 0.8794,0.0843 1.539,0.6704 2.4088,0.7768 0.765,0.0935 2.1775,0.044 2.7008,-0.6123 0.7689,-0.5448 1.2519,-1.7594 2.126,-2.0836 0.8711,-0.3232 1.7219,-0.0596 2.354,-0.9047l0.2827 -0.5484 0 0 -0.0183 -1.06c-0.2164,-1.2323 -0.2436,-2.1339 -0.8029,-3.2717 -0.5723,-1.1644 -1.2264,-1.3864 -1.0766,-2.9061 0.2615,-2.6518 1.2398,-3.4453 -0.5657,-5.8305 0,-0.5999 0.0011,-1.7898 0.7481,-1.9191 0.8533,-0.1478 1.6845,0.0728 1.8979,-0.9321 0.1322,-0.623 0.2164,-1.1453 0.1095,-1.7912 -0.5778,-3.4895 -4.5637,-1.8084 -6.8249,-2.0471l0 0 -3.3943 2.4857c-1.1695,0.5863 -2.7908,1.1397 -4.1058,0.8591 -1.5656,-0.3342 -1.5682,-1.3765 -2.6278,-2.2664 -0.5876,-0.4936 -0.9688,-1.2604 -1.5511,-1.8095 -0.8974,-0.8464 -2.4702,-0.4555 -3.5585,-0.8042l0 0 -1.6424 1.3525 0 0 0.6297 1.2155c0.4647,0.6798 0.8029,1.073 0.8029,1.9557 0,0.4342 0.1116,0.8335 0.292,1.2245l0.6113 1.3252c0.0298,1.0113 0.519,1.6428 0.2006,2.7233 -0.472,1.6012 -1.5653,2.2607 -2.573,3.4544 -0.4079,0.4831 -0.692,1.1327 -0.8897,1.8278l0 0c-0.2387,0.8389 -0.3519,1.7444 -0.4059,2.5039l-0.4197 5.9402 0 0 1.3139 0.6945c-0.3608,1.5724 0.0206,2.4493 1.5147,3.0523 0.6036,0.2435 0.5569,0.6984 0.6387,1.252 0.052,0.3516 0.2919,0.844 0.2919,1.1698l0 0z"
       id="Rwamagana"
       inkscape:label="" /><path
       class="fil0 str0"
       d="M153.099 118.178l1.3139 0.6945c-0.3608,1.5724 0.0206,2.4493 1.5147,3.0523 0.6036,0.2435 0.5569,0.6984 0.6387,1.252 0.052,0.3516 0.2919,0.844 0.2919,1.1698l0 0 -0.3832 1.2977c0.1127,0.3108 0.8019,1.0525 0.6022,1.3342 -0.3528,0.4974 -1.662,1.2149 -1.0858,1.7181 0.6619,0.5782 1.0094,1.2957 1.3778,2.0653 0.3639,0.76 0.3287,0.7711 1.2226,0.8865 0.5426,0.0701 1.1212,0.1714 1.6607,0.0457 1.4169,-0.3304 2.5891,-0.0588 2.4909,1.6358 0.0202,0.4369 -0.0144,0.8686 0.0182,1.316 0.0164,0.2263 0.1812,0.6125 0.2738,0.8316 0.1757,0.416 -0.0573,0.9893 -0.1825,1.3982 -0.2006,0.6552 -0.3011,1.1474 -0.3011,1.846 0.0897,0.6007 0.0824,1.0024 0.4106,1.5536 0.4,0.6715 1.3119,1.4382 1.9343,1.91 0.6205,0.4705 0.9536,1.7505 0.9854,2.4949l0.2202 1.0933 0 0c-0.2946,0.1183 -0.6049,0.2433 -0.8771,0.2775 -0.6905,0.0869 -1.4819,-0.0546 -2.1807,-0.0731l-4.8085 -0.128c-0.0114,0.0256 -0.009,0.0206 0.0182,0.0274 -0.9316,-0.0383 -1.8421,-0.1028 -2.6642,-0.5666l-1.9435 -1.0966c-1.4349,-0.8095 -1.8004,1.4657 -1.834,2.5405 -0.0229,0.7312 -1.3331,0.7063 -1.834,1.0693 -0.4587,0.3323 -0.5904,0.8479 -0.9489,1.1514 -0.2618,0.6378 -0.831,1.1194 -1.0767,1.7821 -0.1781,0.4806 -0.3402,0.863 -0.593,1.2977 -0.32,0.55 -1.3284,1.2336 -1.9709,1.1971 -0.6357,-0.0362 -1.1331,0.3446 -1.6515,0.658 -1.1479,0.2877 -3.4232,-0.8713 -4.1698,-1.6998 -1.1913,-1.3218 -2.7583,-2.1066 -3.6588,-3.6646 -0.2855,-0.8598 -1.1465,-1.9993 -1.7154,-2.6959 -0.5704,-0.6983 -1.5912,-1.124 -2.4818,-1.124 -0.688,0 -1.3443,0.0509 -2.0164,-0.0914 -0.1595,-0.0338 -0.7152,-0.3265 -0.8022,-0.2668 -0.1249,-0.0847 -0.2321,-0.2053 -0.3749,-0.2541 -0.5531,-0.189 -1.5048,-1.2983 -2.1657,-1.1026l0 0c0,-0.5598 0.2724,-2.0265 0.4141,-2.5895 0.2832,-1.1245 0.375,-2.1009 1.0585,-3.0888 0.4427,-0.6397 0.6615,-1.4622 1.1131,-2.0654l0 0c0.0864,-0.2603 0.2733,-0.4659 0.3832,-0.7128 0.0886,-0.1992 0.16,-0.3611 0.219,-0.5666 0.1026,-0.3578 0.0591,-0.818 -0.0548,-1.188 -0.1175,-0.3815 -0.3807,-0.6465 -0.4927,-1.0052l0 0 0.0913 -0.3108c-0.0303,-0.2744 -0.1642,-0.4939 -0.1642,-0.7859 0,-0.3851 0.0911,-0.7074 0.1642,-1.0784 0.1997,-1.0123 0.3742,-1.8889 0.3285,-2.9426 -0.0335,-0.772 0.4004,-0.7995 1.0036,-1.0784 0.3999,-0.1848 0.6192,-0.4515 0.9854,-0.6763 0.8666,-0.5204 1.932,-1.3836 1.7154,-2.4857 -0.2355,-1.1981 -0.1249,-2.375 -1.1314,-3.2351l0 0c1.1922,-0.7955 2.3863,-1.9064 3.9234,-1.2246 0.4406,0.1955 0.7528,0.5952 1.2408,0.6763 0.545,0.0907 0.9283,-0.4765 1.3139,-0.7677 0.09,-0.068 0.1921,-0.1202 0.3014,-0.1605l0 0c0.6685,-0.2464 1.6187,-0.051 1.8884,-0.3329 1.8001,0 3.1398,-1.1436 4.5439,-2.1019 0.7275,-0.4966 1.9273,-1.6152 2.6642,-0.8774 0.8676,0.8688 2.574,5.5445 3.8687,4.9715 0.5816,-0.2573 0.9517,-0.7366 1.3686,-1.2063l0 0z"
       id="Bugesera"
       inkscape:label="" /><path
       class="fil0 str0"
       d="M137.971 107.742l-0.8759 0.3747c-0.3527,0.32 -0.6542,0.5644 -0.9763,0.9139 -0.4099,0.445 -0.6442,1.0405 -0.9763,1.5353 -0.3031,0.4518 -0.2217,0.9416 0.073,1.3708 1.0602,0.3937 2.3444,0.6057 2.9106,1.6998 0.462,0.8927 0.4505,3.0901 0.639,4.0889l0 0c0.6685,-0.2464 1.6187,-0.051 1.8884,-0.3329 1.8001,0 3.1398,-1.1436 4.5439,-2.1019 0.7275,-0.4966 1.9273,-1.6152 2.6642,-0.8774 0.8676,0.8688 2.574,5.5445 3.8687,4.9715 0.5816,-0.2573 0.9517,-0.7366 1.3686,-1.2063l0 0 0.4197 -5.9402c0.054,-0.7595 0.1672,-1.665 0.4059,-2.5039l0 0c-1.2488,0.2166 -4.1254,0.5463 -5.0957,-0.4753 -0.8201,-0.8635 -2.5474,-1.676 -3.7318,-1.8003l-3.3121 -0.0457c-0.9624,-0.0132 -1.3711,0.892 -2.2263,0.7951 -0.6186,-0.0701 -0.7884,-0.5535 -1.5876,-0.4661l0 0z"
       id="Kicukiro"
       inkscape:label="" /><path
       class="fil0 str0"
       d="M130.233 102.131c-0.323,-0.408 -2.1802,-2.68 -1.8978,-3.0889 0.6361,-0.9214 1.5707,-1.6755 2.3358,-2.4857 0.5926,-0.6276 0.7513,-0.8279 1.5328,-0.2376 1.3096,0.989 2.275,0.2598 3.376,-0.4753 1.3701,-0.9146 3.0098,-1.175 4.4343,-1.9191 0.6048,-0.1297 1.2583,-0.3154 1.8249,-0.5666 0.7021,-0.3112 0.9732,-0.8243 1.1861,-1.5718 0.1625,-0.5703 0.1819,-1.2913 0.2555,-1.8826l0 0c1.2909,0.1372 2.3811,0.275 3.4307,1.0784 0.663,0.5076 1.107,1.2685 1.843,1.7546 0.5427,0.3583 1.258,0.9314 1.6789,1.4256 0.637,0.7477 1.2607,1.3407 2.208,1.645 0.5402,0.1736 1.893,0.5116 2.4088,0.201l0 0 0.6297 1.2155c0.4647,0.6798 0.8029,1.073 0.8029,1.9557 0,0.4342 0.1116,0.8335 0.292,1.2245l0.6113 1.3252c0.0298,1.0113 0.519,1.6428 0.2006,2.7233 -0.472,1.6012 -1.5653,2.2607 -2.573,3.4544 -0.4079,0.4831 -0.692,1.1327 -0.8897,1.8278l0 0c-1.2488,0.2166 -4.1254,0.5463 -5.0957,-0.4753 -0.8201,-0.8635 -2.5474,-1.676 -3.7318,-1.8003l-3.3121 -0.0457c-0.9624,-0.0132 -1.3711,0.892 -2.2263,0.7951 -0.6186,-0.0701 -0.7884,-0.5535 -1.5876,-0.4661l0 0c0,-0.6086 0.1347,-1.1948 -0.146,-1.7546 -0.3177,-0.1064 -0.6051,-0.0518 -0.9306,0.0457 -0.355,0.1064 -0.7127,0.1573 -1.0676,0.2559 -0.8288,0 -1.4986,-0.2752 -2.0529,-0.8682 -0.4492,-0.4807 -0.617,-1.1164 -1.2044,-1.517 -0.3496,-0.2383 -0.9714,-0.5676 -1.2044,-0.923l-1.1314 -0.8499 0 0z"
       id="Gasabo"
       inkscape:label="" /><path
       class="fil0 str0"
       d="m 149.029,63.2728 0.7117,-1.2429 3.6862,-0.5483 c 1.2129,-0.1804 3.0787,-1.0082 4.0786,-0.1005 0.4881,0.4432 0.5525,1.0126 0.6113,1.6267 0.0706,0.7382 0.3024,1.2834 0.7299,1.8917 0.4961,0.4361 1.2991,0.7758 1.9161,0.9869 0.8144,0.2788 1.5679,-1.793 1.9252,-2.3943 0.4862,-0.8185 1.0972,-1.2429 2.0804,-1.2429 0.5927,0.596 -0.4339,3.2167 0.0547,4.0759 0.7139,0.356 2.3017,-0.0823 3.1205,-0.0823 1.2902,0 1.8013,0.1602 2.053,-1.3616 0.4956,-0.6042 0.4235,-2.0774 0.3193,-2.8056 -0.1613,-1.1271 -0.0761,-1.1904 0.9946,-1.1149 1.1414,0.0804 1.3485,-0.1644 2.1624,-0.8134 0.9664,-0.7708 1.6674,-1.7433 2.8194,-0.6397 0.4361,0.4179 0.2686,0.7926 1.0676,0.9687 0.6865,0.1514 1.6198,0.1856 2.2993,-0.0091 l 5.4837,-1.5353 c 0.7596,-0.2127 1.9335,-0.19 2.7555,-0.2102 l 2.9745,-0.0731 4.7994,-0.1371 4.7081,-0.0457 3.2596,-0.138 v 0 l -0.2672,-3.0605 -5.4197,-5.008 -4.8359,0.0914 -0.5915,-1.726 c -0.4659,-0.1842 -0.8799,-0.3388 -1.1831,-0.4451 -0.1903,-0.0666 -0.2057,-0.307 -0.2912,-0.5096 -0.0272,-0.0645 -0.1234,-0.3471 -0.182,-0.4004 -0.1073,-0.0976 -0.7408,-1.4649 -1.0556,-1.7472 -0.6489,-0.5818 -2.2686,-0.308 -3.1304,-0.364 -0.9969,-0.0648 -1.6744,-3.868 -1.6744,-4.7684 0,-1.4522 -1.2661,-2.4288 -1.1284,-3.8948 0.0465,-0.4953 -1.3781,-1.5656 -1.7487,-1.9362 -0.3291,-0.3291 -0.497,-0.7159 -0.6752,-1.1332 -0.2436,-0.5703 -0.0806,-1.2361 -0.146,-1.8368 -0.0391,-0.3594 -0.1585,-0.7052 -0.1734,-1.0693 -0.0358,-0.8708 -0.4642,-1.2174 -0.8942,-2.0014 -0.7883,-1.4372 -1.4445,-0.6305 -2.5274,-0.6305 -1.3206,0 -1.571,-0.6791 -1.2683,-1.7181 0.1382,-0.4742 -0.1359,-1.0488 0.006,-1.4828 0.0473,-0.1445 0.6639,-0.4147 0.6639,-0.5944 0,-0.9161 -1.0163,-0.6386 -1.5551,-1.2675 -0.7906,-0.9228 -0.9235,-1.7999 -0.4836,-2.7325 0.4121,-0.8737 1.1573,-2.0265 2.1112,-2.4768 v 0 c -0.2032,-0.2795 -1.1409,-0.723 -1.4725,-0.7492 -0.5971,-0.0471 -1.3313,0.192 -1.7701,0.5758 -0.3385,0.2961 -0.6991,0.938 -1.104,1.1332 -0.4479,0.2159 -0.8903,-0.1271 -1.3413,-0.1828 -0.4026,-0.0497 -0.8441,0.0167 -1.25,0.0366 -1.3233,0.0652 -2.4091,-1.194 -3.8505,-0.7951 -1.1105,0.3073 -1.4009,0.8468 -1.4507,1.8551 -0.0333,0.6732 -2e-4,1.2278 -0.3194,1.7638 -0.3429,0.5759 -0.421,0.7521 -0.3376,1.4439 0.0747,0.6198 0.0228,1.3271 -0.0445,2.0207 l -0.8132,0.1726 c -0.5231,0.3491 -1.0104,0.809 -1.542,1.1332 -0.4295,0.262 -0.9871,0.5071 -1.2865,0.923 -0.6397,0.8884 -0.5591,1.9962 -0.9398,2.9609 -0.2069,0.5982 -0.7968,0.8918 -1.031,1.4348 -0.2027,0.4697 -0.2972,0.9623 -0.5657,1.3982 -0.6726,1.0923 -1.791,1.1013 -2.7464,1.7455 -0.7506,0.506 -0.4886,1.2101 -1.0767,1.6633 -0.3968,0.2806 -1.0616,1.3276 -1.1405,1.8003 -0.1006,0.602 -1.3423,0.3548 -1.761,0.3473 -1.5406,-0.0279 -3.0013,0.208 -3.2665,1.9465 -0.0967,0.6336 0.0555,1.9966 -0.657,2.2481 -0.6902,0.9225 -0.145,1.8389 -0.4653,2.8056 -0.2765,0.8342 -1.9439,0.7411 -2.5092,1.4987 -0.3669,0.4919 -0.2039,1.4726 -0.7938,1.7455 -1.0179,0.4708 -2.1224,-0.0939 -3.1661,-0.201 -0.7549,-0.0775 -0.8647,0.3214 -1.4599,0.594 -0.1335,0.6705 -0.4593,1.3601 -1.0858,1.6906 v 0 l 0.9472,2.3232 c 0.908,1.1136 1.2266,2.6414 2.0547,3.818 l 1.5694,2.2299 c 0.6391,0.908 0.9515,1.6946 1.3504,2.7233 0.2646,1.1135 0.5657,2.4271 2.0256,2.2664 0.5956,-0.0656 1.1109,-0.1645 1.7336,-0.1645 0.4661,0 1.0439,-0.2585 1.4051,-0.5483 z"
       id="Nyagatare"
       inkscape:connector-curvature="0"
       style="fill:#ffffff;stroke:#000000;stroke-width:0.1"
       inkscape:label="" /><path
       class="fil0 str0"
       d="M137.943 50.6248l0.9472 2.3232c0.908,1.1136 1.2266,2.6414 2.0547,3.818l1.5694 2.2299c0.6391,0.908 0.9515,1.6946 1.3504,2.7233 0.2646,1.1135 0.5657,2.4271 2.0256,2.2664 0.5956,-0.0656 1.1109,-0.1645 1.7336,-0.1645 0.4661,0 1.0439,-0.2585 1.4051,-0.5483l0 0c0.1944,0.7595 -0.5193,1.4684 -1.0584,1.9557 -1.0321,0.9331 -1.2004,2.5966 -1.0219,3.8748 0.2239,1.6035 1.3272,3.3358 2.354,4.551 0.5595,0.4699 0.8353,1.3137 1.4964,1.7729 1.0923,0.7586 2.3123,2.1316 3.2117,3.1437 0.9296,1.0459 2.83,1.882 2.0256,3.4362 -0.9198,1.7773 -1.6346,3.2323 -1.1496,5.337 0.4782,0.8121 0.8846,1.4178 1.4963,2.1201 0.7682,0.8822 1.3936,1.7513 1.2044,2.9792 -0.148,0.96 -0.5828,1.4061 -1.0949,2.2116l0 0 -1.6424 1.3525 0 0c-0.5158,0.3106 -1.8686,-0.0274 -2.4088,-0.201 -0.9473,-0.3043 -1.571,-0.8973 -2.208,-1.645 -0.4209,-0.4942 -1.1362,-1.0673 -1.6789,-1.4256 -0.736,-0.4861 -1.18,-1.247 -1.843,-1.7546 -1.0496,-0.8034 -2.1398,-0.9412 -3.4307,-1.0784l0 0c-0.8133,-0.9643 -2.5803,-0.1899 -3.5677,-1.1789 -0.8746,-0.876 -1.2081,-2.6044 -1.1588,-3.7925 0.4829,-2.1194 -1.4667,-3.5247 -2.2901,-5.2639 -0.3049,-0.6442 0.2057,-0.8673 0.4288,-1.3617 0.4096,-0.4448 1.0878,-0.9005 0.9854,-1.5993 -0.0775,-0.5296 -0.8145,-0.961 -1.1131,-1.3799 -0.7961,-1.1171 -2.2837,-1.9093 -3.1844,-2.9427 -0.5387,-0.0589 -2.3085,0.4686 -2.3085,1.2063l0.0183 0.0092c0.0078,0.0274 0.0207,0.027 0.0365,0.0548 0.4994,0.0631 1.3139,0.5953 1.3139,1.1424 0,0.6539 -0.3101,2.0878 -0.803,2.5405 -0.1925,0.1769 -0.8896,0.807 -1.1314,0.7585 -0.5132,-0.643 -0.4492,-1.9933 -1.5237,-1.9557 -1.0508,-0.3091 -0.9353,-1.1924 -1.2227,-2.0562 -0.254,-0.7631 -1.2054,-1.3416 -1.8796,-1.6906l0 0c0.0789,-0.5219 -0.0957,-0.9639 -0.2555,-1.4439 -0.1633,-0.4909 0.073,-0.6425 0.073,-1.0967 0,-0.2479 -0.1556,-0.6876 0.2829,-0.5666 0.3419,0.0944 0.6086,0.0432 0.9489,-0.0091 0.6043,-0.0928 1.677,1.885 2.0439,1.4713 0.1049,-0.1184 0.1005,-0.5573 0.1551,-0.7311 0.2448,-0.7796 0.8603,-1.287 0.1642,-1.9831 -0.4038,-0.5627 -2.684,-2.3609 -2.3541,-3.1071 0.2727,-0.617 1.445,-0.6728 2.0621,-0.8316 0.687,-0.1767 1.4603,-0.8955 0.8851,-1.6176 -0.3264,-0.2593 -1.5055,-0.5822 -1.5055,-1.0144 0.5341,-0.5341 0.5931,-1.2079 0.5931,-1.9374 0,-0.2695 0.0345,-0.5525 0,-0.8133 -0.0372,-0.281 -0.3844,-1.0709 -0.401,-1.3249l0 0c0.8187,-0.6181 1.3923,-1.5758 2.2167,-2.1752 0.4252,0.0707 1.0641,-0.7446 1.5146,-0.8865 0.9402,-0.296 1.9016,-0.1034 2.8559,-0.0091 1.1173,0.1103 0.5022,-2.2367 1.0128,-2.8148 0.3248,-0.3676 1.3024,-0.6307 1.7701,-0.8773l0 0z"
       id="Gicumbi"
       inkscape:label="" /><path
       class="fil0 str0"
       d="M149.029 63.2728l0.7117 -1.2429 3.6862 -0.5483c1.2129,-0.1804 3.0787,-1.0082 4.0786,-0.1005 0.4881,0.4432 0.5525,1.0126 0.6113,1.6267 0.0706,0.7382 0.3024,1.2834 0.7299,1.8917 0.4961,0.4361 1.2991,0.7758 1.9161,0.9869 0.8144,0.2788 1.5679,-1.793 1.9252,-2.3943 0.4862,-0.8185 1.0972,-1.2429 2.0804,-1.2429 0.5927,0.596 -0.4339,3.2167 0.0547,4.0759 0.7139,0.356 2.3017,-0.0823 3.1205,-0.0823 1.2902,0 1.8013,0.1602 2.053,-1.3616 0.4956,-0.6042 0.4235,-2.0774 0.3193,-2.8056 -0.1613,-1.1271 -0.0761,-1.1904 0.9946,-1.1149 1.1414,0.0804 1.3485,-0.1644 2.1624,-0.8134 0.9664,-0.7708 1.6674,-1.7433 2.8194,-0.6397 0.4361,0.4179 0.2686,0.7926 1.0676,0.9687 0.6865,0.1514 1.6198,0.1856 2.2993,-0.0091l5.4837 -1.5353c0.7596,-0.2127 1.9335,-0.19 2.7555,-0.2102l2.9745 -0.0731 4.7994 -0.1371 4.7081 -0.0457 3.2596 -0.138 0 0 0.4426 5.067 8.2812 13.4479 0 0c-1.2721,0 -3.7219,-0.4806 -4.8938,-0.9403 -1.3932,-0.5464 -2.2014,-1.6836 -3.8596,-1.4347 -1.1945,0.1643 -2.7348,0.0772 -3.8596,-0.4113l-3.3029 -1.4348c-0.744,-0.3231 -1.568,-0.2741 -2.3085,-0.5026 -1.3389,0 -3.3205,0.1108 -4.5621,0.6306 -1.309,0.5481 -1.8257,1.2882 -2.9198,2.1019 -0.9715,0.7226 -1.4454,0.9804 -2.6095,1.2794 -0.3711,0.065 -2.5457,-0.1865 -2.5457,0.1736 0,0.6262 0.4968,1.2516 0.7208,1.8186 0.2261,0.5725 -0.4302,0.4031 -0.812,0.4387 -0.6044,0.0563 -1.8717,-0.0765 -2.3541,0.2924 -0.3187,0.2436 -0.3723,0.7019 -0.8394,0.7403l-1.3322 0.1096c-0.4529,0.0373 -0.816,0.8264 -1.2591,1.0418 -1.0537,1.2658 -1.7796,2.0508 -1.0037,3.7378 0.4235,0.9206 1.4016,2.3806 1.1223,3.4361 0,0.446 -0.1014,1.0483 -0.4836,1.3251 -0.3454,0.25 -0.6328,0.5546 -0.6478,1.0053 -0.0284,0.8481 0.085,2.2014 -0.4654,2.8878l-1.4507 1.8094 -0.9673 1.2429 0 0 -3.3943 2.4857c-1.1695,0.5863 -2.7908,1.1397 -4.1058,0.8591 -1.5656,-0.3342 -1.5682,-1.3765 -2.6278,-2.2664 -0.5876,-0.4936 -0.9688,-1.2604 -1.5511,-1.8095 -0.8974,-0.8464 -2.4702,-0.4555 -3.5585,-0.8042l0 0c0.5121,-0.8055 0.9469,-1.2516 1.0949,-2.2116 0.1892,-1.2279 -0.4362,-2.097 -1.2044,-2.9792 -0.6117,-0.7023 -1.0181,-1.308 -1.4963,-2.1201 -0.485,-2.1047 0.2298,-3.5597 1.1496,-5.337 0.8044,-1.5542 -1.096,-2.3903 -2.0256,-3.4362 -0.8994,-1.0121 -2.1194,-2.3851 -3.2117,-3.1437 -0.6611,-0.4592 -0.9369,-1.303 -1.4964,-1.7729 -1.0268,-1.2152 -2.1301,-2.9475 -2.354,-4.551 -0.1785,-1.2782 -0.0102,-2.9417 1.0219,-3.8748 0.5391,-0.4873 1.2528,-1.1962 1.0584,-1.9557l0 0z"
       id="Gatsibo"
       inkscape:label="" /><path
       class="fil0 str0"
       d="M100.689 191.439l0.0359 -1.4494c0.1425,-0.9162 0.8058,-1.7808 1.0767,-2.6868l1.0219 -3.4179c0.2502,-0.4488 0.7194,-0.6712 1.0858,-0.9961 0.3808,-0.3375 0.7568,-0.9397 0.8577,-1.4439l0.1733 -0.658 0 0c0.835,-0.7455 1.2387,-2.064 2.053,-2.8695 0.7105,-0.703 0.5201,-1.857 0.5201,-2.7417 -0.0177,-0.7064 0.2618,-1.2256 0.2828,-1.8734 0.0249,-0.7712 -0.8354,-1.4845 -1.1953,-2.1202 -0.2743,-0.4843 -0.3889,-0.8586 -0.4744,-1.4165 -0.0976,-0.6373 0.1295,-1.0378 0.1551,-1.6358 0.1669,-0.3138 0.1436,-0.5282 0.4562,-0.7676 0.4086,-0.3131 0.8687,-0.5385 0.7026,-1.1241 -0.2671,-0.9412 -0.8736,-1.4488 -0.0092,-2.2755 0.7045,-0.6736 1.0101,-1.415 2.0348,-1.7364 0.7078,-0.0971 1.16,-0.3088 1.5055,-0.9321 0.2114,-0.3815 0.4914,-0.8904 0.7664,-1.2246 0.2017,-0.245 0.3619,-0.4119 0.6113,-0.6031 0.3808,-0.2921 0.4282,-0.8477 0.8212,-1.1515 0.3778,-0.2922 0.7319,-0.523 1.1588,-0.7494l0.9854 -0.6214 0 0c1.854,-0.8116 4.1436,-0.7342 6.1224,-1.0875 0.5236,-0.1385 0.8264,-0.2194 1.2683,-0.5483 0.2333,-0.1737 0.4029,-0.5297 0.5931,-0.7586 0.275,-0.3312 0.4997,-0.7026 0.7846,-1.0235 0.242,-0.2724 1.8459,-0.8682 2.1728,-1.0312l0 0c-0.0222,0.72 0.0188,1.5425 0.2269,2.137 0.1658,0.474 0.5195,1.3625 0.4927,1.8643 -0.0516,0.9642 0.5372,2.3073 -0.5018,2.9152 -1.2307,0.72 -2.05,0.8675 -2.6004,2.3121 -0.3385,0.8884 -0.0999,1.4363 -0.3102,2.3121 -0.1699,0.7073 -1.2318,1.6344 -1.1041,2.3669 0.1138,0.6526 0.3866,1.3132 0.6205,1.9374 0.1448,0.3865 0.3664,0.8676 0.3741,1.2794 0.0173,0.916 -0.0821,1.8152 -0.0821,2.7325 0,0.5086 -0.1631,1.1134 0.0364,1.5901 0.1195,0.2856 0.58,0.6633 0.4471,0.9779 -0.2113,0.5003 -0.66,0.8984 -0.5565,1.4439 0.0605,0.319 -0.0765,0.717 -0.219,1.0509 -0.1889,0.4426 -0.1236,1.2198 -0.4745,1.5719 -0.4209,0.4224 -0.8485,1.0792 -1.0128,1.6541 -0.1079,0.3776 -0.2368,0.9067 -0.4927,1.2154 -0.3444,0.4155 -1.0315,0.7268 -1.2318,1.2155 -0.1937,0.4726 -0.1594,1.0059 -0.3467,1.4439 -0.3898,0.911 -2.7122,0.8772 -3.5402,1.3616 -0.7869,0.4603 -1.3008,1.358 -2.1625,1.6633 -0.8972,0.3179 -2.3267,0.0557 -2.3267,-1.1058 0,-0.4809 -1.6381,-0.9187 -1.9252,-0.6031 -0.4396,0.4832 -0.2554,0.9767 -1.0949,0.9504 -0.8595,-0.0269 -1.1131,-0.7425 -1.1131,0.7037 0,0.3781 -0.4777,0.4616 -0.5201,0.8499 -0.059,0.5404 -0.5021,2.8147 -1.1953,2.8147 -0.8325,0 -0.4446,-0.6843 -1.4143,0.0091 -0.0202,0.0144 0.0508,-0.0449 0.0274,-0.0366 -0.6518,0.232 -1.2961,0.7919 -1.9891,0.4844 -0.562,-0.2494 -1.0555,-0.0452 -1.5779,-0.1681l0 0z"
       id="Gisagara"
       inkscape:label="" /><path
       class="fil0 str0"
       d="M90.8163 136.94c0.3096,-0.1103 1.8808,-0.2818 2.1078,-0.0548 0.2225,0.2225 0.1878,0.581 0.447,0.7402 0.5233,0.3212 1.0037,0.2815 1.0037,-0.4204 0,-0.2341 0.1151,-0.6795 0.4106,-0.6945 0.1928,-0.0097 0.3086,0.362 0.4288,0.4935 0.309,0.2238 0.5606,0.9016 1.0493,0.4386 0.1958,-0.1856 0.6639,-0.8664 0.9216,-0.8499 0.1434,0.0092 0.3717,0.6857 0.4927,0.8316 0.2123,0.2557 0.5532,0.4828 0.7299,0.7586 0.3299,0.5152 0.4063,1.08 0.9855,0.329 0.4265,-0.5529 0.8079,-0.5693 0.8668,-1.3891 0.0281,-0.3924 -0.0755,-1.8756 0.6569,-1.5171 0.9061,0.4434 1.7578,0.4089 2.7373,0.2742 0.4737,-0.0113 1.1279,-0.4519 1.3048,0.1005 0.3698,1.1551 4.0298,3.7451 5.2738,3.0158 1.1348,-0.6652 -0.0115,-1.7892 1.6789,-1.4256 0.4789,0.103 0.8914,0.0727 1.2409,0.4569 0.2474,0.2718 0.2865,0.6407 0.6752,0.8225 1.0484,1.2606 2.684,1.1639 4.2063,0.859l2.2354 -0.4478c0.4599,-0.0921 1.2713,-0.1039 1.5876,-0.466 0,-0.3203 -0.5777,-1.0166 -0.6843,-1.3983 -0.1875,-0.6718 -0.3741,-1.1408 -0.3741,-1.8643 0.3389,-0.3265 0.5447,-0.6027 1.0402,-0.7493 0.601,-0.1777 1.2822,0.2896 1.9069,0.329 0.4329,0.0272 0.8265,-0.0719 1.2501,-0.1006 0.4604,-0.0311 0.9287,-0.0102 1.3869,-0.0639l2.555 0.3198 0 0c-0.4516,0.6032 -0.6704,1.4257 -1.1131,2.0654 -0.6835,0.9879 -0.7753,1.9643 -1.0585,3.0888 -0.1417,0.563 -0.4141,2.0297 -0.4141,2.5895l0 0c-0.0782,0.1007 -0.2353,0.1186 -0.3343,0.2618 -0.4721,0.6821 0.109,1.8392 -0.2555,2.4492 -0.3007,0.5033 -0.9472,0.864 -0.7756,1.5444 0.1933,0.7663 0.7117,1.5129 0.7117,2.2938 0,0.9537 0.6714,1.3591 0.5931,2.3121 -0.0157,0.1917 -0.0285,0.4026 -0.0353,0.6229l0 0c-0.3269,0.163 -1.9308,0.7588 -2.1728,1.0312 -0.2849,0.3209 -0.5096,0.6923 -0.7846,1.0235 -0.1902,0.2289 -0.3598,0.5849 -0.5931,0.7586 -0.4419,0.3289 -0.7447,0.4098 -1.2683,0.5483 -1.9788,0.3533 -4.2684,0.2759 -6.1224,1.0875l0 0c-0.3318,-0.671 -1.7343,-0.5941 -2.2993,-1.1606 -0.7877,-0.79 -0.7806,-1.6923 -0.2828,-2.6228 0.3088,-0.5774 0.8398,-0.8203 0.6569,-1.5079 0,-0.7423 -1.2966,-1.0805 -1.6606,-1.4805 -0.1923,-0.2114 -0.2678,-0.5296 -0.3741,-0.7859 -0.6731,-1.6226 -1.6107,-1.739 -3.1935,-1.1972 -1.1878,0.4065 -1.8538,1.6328 -2.8924,2.2847 -0.6504,0.4807 -1.908,1.1766 -2.7282,1.2703 -0.5961,0.068 -2.159,0.0764 -2.4635,-0.4844l-0.7938 -1.4622c-0.2833,-0.5218 -0.6473,0.8025 -0.7391,0.9687 -0.3744,0.6782 -0.5032,2.2797 -1.3504,2.504l0 0c-0.2205,-0.2407 -0.3409,-0.4125 -0.6022,-0.6123 -0.2422,-0.1851 -0.576,-0.301 -0.8668,-0.3747 -0.7865,-0.1996 -1.3428,-0.5549 -1.25,-1.453 0,-0.4465 -0.3061,-1.2517 -0.6387,-1.5536 -0.5178,-0.4702 -1.2189,-0.4425 -1.8705,-0.5757 -0.4062,-0.0831 -0.8171,-0.3587 -1.2044,-0.5209 -0.5856,-0.2454 -1.0767,-0.2967 -1.3595,-0.9322 -0.2699,-0.6063 -0.3924,-1.5701 -0.3194,-2.2298 0,-1.98 2.3909,-3.1239 3.2848,-4.615 0.0775,-0.1292 -0.9259,-0.7122 -1.1132,-0.8499 -0.3808,-0.2801 -0.8585,-1.4289 -0.5474,-1.8552l0.1094 -0.7585 0 0z"
       id="Nyanza"
       inkscape:label="" /><path
       class="fil0 str0"
       d="M97.1942 153.271c0.8472,-0.2243 0.976,-1.8258 1.3504,-2.504 0.0918,-0.1662 0.4558,-1.4905 0.7391,-0.9687l0.7938 1.4622c0.3045,0.5608 1.8674,0.5524 2.4635,0.4844 0.8202,-0.0937 2.0778,-0.7896 2.7282,-1.2703 1.0386,-0.6519 1.7046,-1.8782 2.8924,-2.2847 1.5828,-0.5418 2.5204,-0.4254 3.1935,1.1972 0.1063,0.2563 0.1818,0.5745 0.3741,0.7859 0.364,0.4 1.6606,0.7382 1.6606,1.4805 0.1829,0.6876 -0.3481,0.9305 -0.6569,1.5079 -0.4978,0.9305 -0.5049,1.8328 0.2828,2.6228 0.565,0.5665 1.9675,0.4896 2.2993,1.1606l0 0 -0.9854 0.6214c-0.4269,0.2264 -0.781,0.4572 -1.1588,0.7494 -0.393,0.3038 -0.4404,0.8594 -0.8212,1.1515 -0.2494,0.1912 -0.4096,0.3581 -0.6113,0.6031 -0.275,0.3342 -0.555,0.8431 -0.7664,1.2246 -0.3455,0.6233 -0.7977,0.835 -1.5055,0.9321 -1.0247,0.3214 -1.3303,1.0628 -2.0348,1.7364 -0.8644,0.8267 -0.2579,1.3343 0.0092,2.2755 0.1661,0.5856 -0.294,0.811 -0.7026,1.1241 -0.3126,0.2394 -0.2893,0.4538 -0.4562,0.7676 -0.0256,0.598 -0.2527,0.9985 -0.1551,1.6358 0.0855,0.5579 0.2001,0.9322 0.4744,1.4165 0.3599,0.6357 1.2202,1.349 1.1953,2.1202 -0.021,0.6478 -0.3005,1.167 -0.2828,1.8734 0,0.8847 0.1904,2.0387 -0.5201,2.7417 -0.8143,0.8055 -1.218,2.124 -2.053,2.8695l0 0c0,-0.1401 -0.2381,-0.386 -0.3193,-0.5118 -0.1107,-0.1713 -0.3324,-0.3348 -0.4836,-0.4752 -0.4112,-0.3816 -0.93,-0.6437 -1.5146,-0.5117 -0.7989,-0.0383 -4.2702,-0.2973 -4.2702,-1.2886 0,-1.3007 -0.1507,-1.8109 -0.9763,-2.8513 -0.2965,-0.3738 -1.5038,0.4876 -1.8522,0.7768 -1.1944,0.9911 -1.239,-1.0312 -1.5694,-1.3616 -0.5464,0 -1.421,0.0715 -1.8249,-0.3656 -0.2227,-0.2409 -0.7346,-0.9289 -0.6387,-1.2611 0.0354,-0.704 0.2026,-1.5381 0.3833,-2.2207 0.1546,-0.5843 0.6981,-1.2884 0.3376,-1.8917 -0.227,-0.3797 -0.5786,-0.7257 -0.8212,-1.115 -0.251,-0.403 -0.6446,-1.2913 -1.0949,-1.4347l-1.1953 0 0 0c0.1177,-0.7986 -0.143,-1.7215 0.073,-2.4949 0.1073,-0.3841 0.2401,-0.4259 0.5109,-0.6671 0.3104,-0.2763 0.6495,-0.6529 0.9946,-0.8773 0.3921,-0.7245 0.0619,-0.9111 -0.3924,-1.4805 -0.3209,-0.4021 -0.6801,-0.8861 -0.3832,-1.4074 0.22,-0.3861 0.8999,-0.2776 1.2865,-0.3381 1.6494,-0.2581 3.322,-1.7552 3.6133,-3.427 0.1194,-0.2052 0.1407,-0.398 0.3467,-0.5574 0.2687,-0.2081 0.4796,-0.3261 0.7938,-0.457 0.3283,-0.1369 0.5998,-0.422 0.8212,-0.6945l0.4288 -0.6032 0 0z"
       id="Huye"
       inkscape:label="" /><path
       class="fil0 str0"
       d="M27.1837 147.577l0.8401 1.8735c0.1434,0.7051 0.8944,1.337 0.2639,2.047 -0.2631,0.2964 -0.5618,0.5887 -0.7026,0.9687 -0.1573,0.4242 0.1018,0.953 0.2829,1.3343 0.3455,0.9579 1.193,1.5384 1.2044,2.6685l0.0182 1.8094c0.005,0.4944 -0.0024,1.4305 0.2555,1.8369 0.6754,0.7097 1.2675,1.1539 2.0804,1.6632 0.9787,0.6133 0.3964,2.3745 1.2409,2.8787 0.8788,0.5246 2.0979,-0.5028 2.0073,1.0601 -0.0851,0.5397 0.0825,1.136 0.5201,1.4531 0.1892,0.137 0.5132,0.6802 0.739,0.5209 0.5329,-0.3761 0.8721,-0.7542 1.0037,-1.3983 0.1304,-0.6379 0.0581,-1.3888 0.6296,-1.8186 0.6748,-0.0943 1.2862,-0.5613 1.9435,-0.7585 0.5014,-0.1505 0.9223,-0.3642 1.3595,-0.6488 0.3077,-0.2002 0.571,-0.352 0.9398,-0.4204 0.4765,-0.0885 0.8329,-0.124 0.9307,-0.6671 0.0589,-0.3268 0.1744,-1.0665 0.3102,-1.3251 0.1719,-0.1889 0.874,-1.0967 1.0766,-1.0967 0.1382,0 0.3934,0.8145 0.5566,0.9779 0.3989,0.3992 1.6463,0.5271 2.199,0.4112 0.3436,-0.0721 0.5916,-1.2192 0.7117,-1.517 0.3156,-0.7829 0.2482,-0.416 0.6569,-0.1279 0.5215,0.3675 1.1271,0.629 1.6698,1.0052 0.7415,0.5139 0.7192,-0.5864 1.177,-0.9596 0.738,-0.3553 0.8227,-0.0983 1.4142,0.2102 0.7744,0.4038 1.5342,-0.7204 2.3632,-0.7402 0.7492,-0.0179 2.7167,0.3768 3.4592,0.2285l0 0c0.531,0.5317 0.9215,0.9501 1.5876,1.2977 0.7436,0.3879 1.6197,0.4535 2.2263,1.0601 0.5731,0.5731 0.9946,1.2829 1.3504,2.047 0.2291,0.2711 0.2949,0.5636 0.4927,0.8408l0.8212 1.1515c0.5661,0.7937 0.7789,1.7786 0.8942,2.705l0 0c0.2324,0.6305 -0.0222,1.3972 0.2372,1.9374 0.7297,1.519 2.5944,2.3591 2.3905,4.2038 -0.8983,1.0121 -1.4148,2.2205 -1.8796,3.4727 -0.3137,0.8452 -0.9234,1.9469 -1.1614,2.8242l0 0c-0.633,-0.5835 -1.3796,-1.353 -1.5951,-2.0017 -0.2526,-0.7602 -0.1234,-1.9737 0.1004,-2.7325 0.1696,-0.5754 -0.7162,-0.6852 -1.0767,-0.7951 -2.1919,-1.565 -5.5447,-2.2285 -8.1753,-2.3486 -0.6337,-0.0289 -1.7002,0.1161 -2.2629,-0.1645 0.0178,-0.0354 0.02,-0.0007 0.0548,0.0183 -1.05,-0.6014 -1.5179,-0.6753 -2.7647,-0.7677 -1.1494,-0.0851 -2.0475,-0.6711 -2.9015,-1.4165 -0.4186,-0.3655 -0.9846,-1.1023 -1.4507,-1.3342 -0.2661,-0.1325 -0.565,0.2831 -0.7847,0.3564 -0.8885,1.0565 -1.3611,0.3922 -2.3267,0.0731 -1.0295,-0.3401 -1.9028,-0.158 -2.9289,0.1188 -1.4543,0.3924 -3.0388,1.667 -2.8924,3.3448 0.0853,0.9771 0.124,1.9531 -0.4653,2.769 -0.0739,0.6119 -0.1463,1.5817 0.1186,2.1567 0.2052,0.4457 0.4616,1.1527 0.5292,1.645 0.1114,0.8106 -0.5064,2.773 -1.0676,3.3539l-0.4379 1.1515 0 0c-0.1781,-0.1605 -0.43,-0.3678 -0.5749,-0.5575 -0.1886,-0.2467 -0.3535,-0.5136 -0.5657,-0.7402 -0.6698,-0.7154 -1.2354,-1.4789 -2.0256,-2.0745 -0.2842,-0.2142 -0.5522,-0.0473 -0.7481,-0.4021 -0.2425,-0.4392 -0.6517,-0.2064 -1.0585,-0.2925 -0.2055,-0.0435 -0.2976,-0.3318 -0.4653,-0.4478 -0.5349,-0.3701 -1.2312,0.9526 -1.4416,0.9231 -0.1198,-0.0168 -0.6758,-0.5879 -0.7756,-0.722 -0.4172,-0.5609 -0.7216,-0.4112 -1.3321,-0.4112 -0.7086,0 -0.4051,-0.4607 -0.657,-0.8408 -0.2032,-0.3067 -0.4049,-0.0274 -0.6296,-0.0274 -0.1667,0 -0.2244,-0.1436 -0.3832,-0.1737 -0.4838,-0.0918 -0.9146,0.2894 -1.2774,-0.1645 -0.3553,-0.4446 -0.3783,-1.1004 -0.7664,-1.4621 -0.3047,-0.284 -0.426,0.2206 -0.7665,-0.3016 -0.2235,-0.3428 0.0684,-0.5954 -0.0365,-0.9047 -0.1263,-0.3723 0.3586,-0.439 0.4015,-0.8043 0.0887,-0.7545 0.1257,-1.5136 -0.4106,-2.0836 -0.4872,-0.5178 0.3105,-1.3314 -0.1095,-2.0562 -0.316,-0.5454 -0.2655,-0.6633 -0.146,-1.252 0.064,-0.3157 0.0369,-0.5688 0.0365,-0.8773 -0.0007,-0.4829 -0.4511,-0.8647 -0.4744,-1.3799 -0.0235,-0.5192 0.0561,-0.8148 -0.5019,-0.9687 -0.2808,-0.0774 -0.6231,-0.1852 -0.8485,-0.3747 -0.3969,-0.3337 -0.6893,-0.7766 -0.9581,-1.2246 -0.1681,-0.2803 -0.5845,-0.7983 -0.6934,-1.0509 -0.1499,-0.3475 -0.3061,-0.6112 -0.1004,-1.0236 0.1804,-0.3617 0.4165,-0.6569 0.7482,-0.8864 0.7693,-0.5323 1.8695,-0.1197 2.0895,-1.2429 0.0569,-0.291 0.2387,-1.46 0.1567,-1.6897 -0.2071,-1.0579 -0.7539,-1.6701 -1.5984,-2.2948 -0.3736,-0.2763 -0.6685,-0.6592 -0.8576,-1.0875 -0.2662,-0.6031 -0.0928,-1.1407 -0.1734,-1.7637 0.7124,-2.321 1.5291,-4.0881 3.5311,-5.5655 0.6434,-0.4747 1.8845,-0.5641 2.646,-0.3747l1.396 0.3473c0.7401,0.184 1.0106,-0.1828 1.5877,-0.1828l0 0z"
       id="Rusizi"
       inkscape:label="" /><path
       class="fil0 str0"
       d="M89.101 166.275l1.1953 0c0.4503,0.1434 0.8439,1.0317 1.0949,1.4347 0.2426,0.3893 0.5942,0.7353 0.8212,1.115 0.3605,0.6033 -0.183,1.3074 -0.3376,1.8917 -0.1807,0.6826 -0.3479,1.5167 -0.3833,2.2207 -0.0959,0.3322 0.416,1.0202 0.6387,1.2611 0.4039,0.4371 1.2785,0.3656 1.8249,0.3656 0.3304,0.3304 0.375,2.3527 1.5694,1.3616 0.3484,-0.2892 1.5557,-1.1506 1.8522,-0.7768 0.8256,1.0404 0.9763,1.5506 0.9763,2.8513 0,0.9913 3.4713,1.2503 4.2702,1.2886 0.5846,-0.132 1.1034,0.1301 1.5146,0.5117 0.1512,0.1404 0.3729,0.3039 0.4836,0.4752 0.0812,0.1258 0.3193,0.3717 0.3193,0.5118l0 0 -0.1733 0.658c-0.1009,0.5042 -0.4769,1.1064 -0.8577,1.4439 -0.3664,0.3249 -0.8356,0.5473 -1.0858,0.9961l-1.0219 3.4179c-0.2709,0.906 -0.9342,1.7706 -1.0767,2.6868l-0.0359 1.4494 0 0c-0.1461,-0.0344 -0.2948,-0.0946 -0.4477,-0.1974 -0.4074,-0.2741 -0.8151,-0.5484 -1.2226,-0.8225 -0.5527,-0.3716 -1.2911,-0.4678 -1.8249,-0.8682 -0.7456,-0.5593 -1.4055,-1.5511 -2.5,-1.4713 -0.8574,0.0625 -1.3887,0.195 -2.0348,0.7128 -0.5018,0.402 -1.0037,0.8042 -1.5055,1.2063 -1.2157,0.974 -2.5729,0.5698 -3.4759,-0.2285l-1.2504 1.0601c-0.9021,0.9641 -2.0552,2.294 -3.4581,1.4805 -1.0823,-0.6277 -2.1364,-1.5627 -3.4216,-1.5627 -1.0942,0 -1.7878,0.0528 -2.7921,-0.3564 -1.3294,-0.6964 -1.8395,-1.3836 -3.2117,-0.2925 -1.1421,0.908 -2.1653,-0.4799 -2.9015,1.4074 -0.3576,0.9167 -0.9435,0.9113 -1.8431,1.0418 -1.1305,0.1641 -1.7196,-0.4763 -2.491,-1.188 -1.0116,-0.9335 0.0722,-1.9114 -0.6113,-3.1438 -0.6769,-0.7352 -1.3158,-2.0013 -1.0584,-3.0066 0.1933,-0.7547 1.476,-1.1018 1.8157,-2.0013 0.3894,-1.0313 -0.2551,-1.3353 -0.6295,-2.1476 -0.154,-0.135 -0.3372,-0.2963 -0.5309,-0.4749l0 0c0.238,-0.8773 0.8477,-1.979 1.1614,-2.8242 0.4648,-1.2522 0.9813,-2.4606 1.8796,-3.4727 0.2039,-1.8447 -1.6608,-2.6848 -2.3905,-4.2038 -0.2594,-0.5402 -0.0048,-1.3069 -0.2372,-1.9374l0 0 1.103 -0.3838c0.4999,-0.1916 0.6419,-0.9304 1.2774,-1.1058 1.1496,-0.3175 2.1806,-0.0782 3.2938,-0.0457 1.0765,0.0315 0.6287,0.3899 1.1406,1.188 0.5846,0.9116 1.8663,0.9202 2.4362,1.91 0.8614,1.4958 1.1896,0.8222 2.5639,0.393 0.4658,-0.2593 1.1383,-0.2464 1.4964,-0.6215 0.3174,-0.3323 0.2687,-0.9541 0.3284,-1.3799 0.1031,-0.7359 1.3132,-0.4229 1.8979,-0.9504 0.4504,-0.4065 0.7442,-0.938 1.1679,-1.3617 0.2782,-0.2782 1.2854,-1.3854 1.688,-1.2246 0.4622,0.1847 0.7437,0.5642 1.1679,0.7768 0.6386,0.32 1.2761,0.3138 1.98,0.3382l1.8522 0.594 0 0z"
       id="Nyaruguru"
       inkscape:label="" /><path
       class="fil0 str0"
       d="M86.9667 132.562l-3.2482 1.718c-0.7081,0.7578 -1.8723,1.7255 -2.7373,2.303 -0.7374,0.4922 -1.2443,1.336 -2.0438,1.7363 -1.2396,0.6206 -2.7773,0.8361 -4.1789,0.6763 -1.2954,-0.1476 -2.1206,0.4755 -3.1022,1.1698 -0.2394,0.9596 -1.4582,1.1366 -2.2993,0.859 -1.1529,-0.3804 -3.1799,0.1928 -4.1971,0.8042 -0.4265,0.2564 -1.2114,1.4691 -1.3869,1.9374l0 0c0.851,0.6694 2.3176,2.2622 2.3176,3.3996 0,1.2202 -1.2601,2.2138 -1.8614,3.2168 -0.5477,0.7138 0.0679,1.9188 0.2008,2.7416 0.1378,0.8526 -0.6296,1.325 -1.3139,1.5536 -1.1364,0.3795 -3.0668,0.8895 -3.9599,1.6449 -0.7019,0.5938 -0.8212,1.8492 -0.8212,2.7234l0 0c0.531,0.5317 0.9215,0.9501 1.5876,1.2977 0.7436,0.3879 1.6197,0.4535 2.2263,1.0601 0.5731,0.5731 0.9946,1.2829 1.3504,2.047 0.2291,0.2711 0.2949,0.5636 0.4927,0.8408l0.8212 1.1515c0.5661,0.7937 0.7789,1.7786 0.8942,2.705l0 0 1.103 -0.3838c0.4999,-0.1916 0.6419,-0.9304 1.2774,-1.1058 1.1496,-0.3175 2.1806,-0.0782 3.2938,-0.0457 1.0765,0.0315 0.6287,0.3899 1.1406,1.188 0.5846,0.9116 1.8663,0.9202 2.4362,1.91 0.8614,1.4958 1.1896,0.8222 2.5639,0.393 0.4658,-0.2593 1.1383,-0.2464 1.4964,-0.6215 0.3174,-0.3323 0.2687,-0.9541 0.3284,-1.3799 0.1031,-0.7359 1.3132,-0.4229 1.8979,-0.9504 0.4504,-0.4065 0.7442,-0.938 1.1679,-1.3617 0.2782,-0.2782 1.2854,-1.3854 1.688,-1.2246 0.4622,0.1847 0.7437,0.5642 1.1679,0.7768 0.6386,0.32 1.2761,0.3138 1.98,0.3382l1.8522 0.594 0 0c0.1177,-0.7986 -0.143,-1.7215 0.073,-2.4949 0.1073,-0.3841 0.2401,-0.4259 0.5109,-0.6671 0.3104,-0.2763 0.6495,-0.6529 0.9946,-0.8773 0.3921,-0.7245 0.0619,-0.9111 -0.3924,-1.4805 -0.3209,-0.4021 -0.6801,-0.8861 -0.3832,-1.4074 0.22,-0.3861 0.8999,-0.2776 1.2865,-0.3381 1.6494,-0.2581 3.322,-1.7552 3.6133,-3.427 0.1194,-0.2052 0.1407,-0.398 0.3467,-0.5574 0.2687,-0.2081 0.4796,-0.3261 0.7938,-0.457 0.3283,-0.1369 0.5998,-0.422 0.8212,-0.6945l0.4288 -0.6032 0 0c-0.2205,-0.2407 -0.3409,-0.4125 -0.6022,-0.6123 -0.2422,-0.1851 -0.576,-0.301 -0.8668,-0.3747 -0.7865,-0.1996 -1.3428,-0.5549 -1.25,-1.453 0,-0.4465 -0.3061,-1.2517 -0.6387,-1.5536 -0.5178,-0.4702 -1.2189,-0.4425 -1.8705,-0.5757 -0.4062,-0.0831 -0.8171,-0.3587 -1.2044,-0.5209 -0.5856,-0.2454 -1.0767,-0.2967 -1.3595,-0.9322 -0.2699,-0.6063 -0.3924,-1.5701 -0.3194,-2.2298 0,-1.98 2.3909,-3.1239 3.2848,-4.615 0.0775,-0.1292 -0.9259,-0.7122 -1.1132,-0.8499 -0.3808,-0.2801 -0.8585,-1.4289 -0.5474,-1.8552l0.1094 -0.7585 0 0c-0.1166,-0.0258 -0.222,-0.1787 -0.3284,-0.2467 -0.1151,-0.0734 -0.2274,-0.1241 -0.3559,-0.1737 -0.2983,-0.1153 -0.4831,-0.3503 -0.739,-0.5117 -0.4054,-0.2555 -0.9558,-1.1852 -1.0585,-1.6541l-1.3678 -1.7912 0 0z"
       id="Nyamagabe"
       inkscape:label="" /><path
       class="fil0 str0"
       d="M47.1075 126.757l10.3687 -0.0256c0.5899,0.9619 0.8522,2.1103 1.4057,3.0889 0.6942,1.2271 1.5109,2.1739 2.7373,2.7964 0.3094,0.1571 1.0987,0.2563 0.8394,0.6763 -0.4482,0.7256 -0.5474,1.0405 -0.5474,1.9191 0.5884,1.1648 0.5195,2.7509 0.5195,4.0393 0.1056,1.3979 0.7038,3.2356 1.3423,4.5145l0 0c0.851,0.6694 2.3176,2.2622 2.3176,3.3996 0,1.2202 -1.2601,2.2138 -1.8614,3.2168 -0.5477,0.7138 0.0679,1.9188 0.2008,2.7416 0.1378,0.8526 -0.6296,1.325 -1.3139,1.5536 -1.1364,0.3795 -3.0668,0.8895 -3.9599,1.6449 -0.7019,0.5938 -0.8212,1.8492 -0.8212,2.7234l0 0c-0.7425,0.1483 -2.71,-0.2464 -3.4592,-0.2285 -0.829,0.0198 -1.5888,1.144 -2.3632,0.7402 -0.5915,-0.3085 -0.6762,-0.5655 -1.4142,-0.2102 -0.4578,0.3732 -0.4355,1.4735 -1.177,0.9596 -0.5427,-0.3762 -1.1483,-0.6377 -1.6698,-1.0052 -0.4087,-0.2881 -0.3413,-0.655 -0.6569,0.1279 -0.1201,0.2978 -0.3681,1.4449 -0.7117,1.517 -0.5527,0.1159 -1.8001,-0.012 -2.199,-0.4112 -0.1632,-0.1634 -0.4184,-0.9779 -0.5566,-0.9779 -0.2026,0 -0.9047,0.9078 -1.0766,1.0967 -0.1358,0.2586 -0.2513,0.9983 -0.3102,1.3251 -0.0978,0.5431 -0.4542,0.5786 -0.9307,0.6671 -0.3688,0.0684 -0.6321,0.2202 -0.9398,0.4204 -0.4372,0.2846 -0.8581,0.4983 -1.3595,0.6488 -0.6573,0.1972 -1.2687,0.6642 -1.9435,0.7585 -0.5715,0.4298 -0.4992,1.1807 -0.6296,1.8186 -0.1316,0.6441 -0.4708,1.0222 -1.0037,1.3983 -0.2258,0.1593 -0.5498,-0.3839 -0.739,-0.5209 -0.4376,-0.3171 -0.6052,-0.9134 -0.5201,-1.4531 0.0906,-1.5629 -1.1285,-0.5355 -2.0073,-1.0601 -0.8445,-0.5042 -0.2622,-2.2654 -1.2409,-2.8787 -0.8129,-0.5093 -1.405,-0.9535 -2.0804,-1.6632 -0.2579,-0.4064 -0.2505,-1.3425 -0.2555,-1.8369l-0.0182 -1.8094c-0.0114,-1.1301 -0.8589,-1.7106 -1.2044,-2.6685 -0.1811,-0.3813 -0.4402,-0.9101 -0.2829,-1.3343 0.1408,-0.38 0.4395,-0.6723 0.7026,-0.9687 0.6305,-0.71 -0.1205,-1.3419 -0.2639,-2.047l-0.8401 -1.8735 0 0c0.5922,-0.2127 0.5326,-0.962 0.3011,-1.4713 -0.1823,-0.4008 -0.0948,-0.7397 0.3832,-0.859 1.0069,-0.2513 1.4343,-0.4368 1.8613,-1.4531l1.3322 -3.1711c0.346,-0.4725 0.4625,-0.8311 1.0675,-1.051 1.0698,-0.3887 2.1748,-0.4667 3.2939,-0.6671l3.8778 -0.6945c1.1254,-0.2473 2.0674,-0.5771 2.792,-1.5536 0.8974,-1.2096 1.5355,-2.4303 2.0256,-3.8565l2.9892 -6.0425 0 0z"
       id="Nyamasheke"
       inkscape:label="" /><path
       class="fil0 str0"
       d="M175.665 142.681l0.7094 -0.3035c0.7364,0 1.2542,-0.2645 1.4507,-1.0052 0.1108,-0.4174 0.0889,-1.4258 0.3832,-1.6816 0.206,-0.1792 1.8263,0.7944 1.9618,1.0236 0.2499,0.423 0.3468,0.6228 0.885,0.4752 0.4768,-0.1307 1.3207,-0.6989 1.7154,-1.0144 1.2682,-0.9393 2.3768,-2.2098 3.8048,-2.9244 0.5324,-0.2665 0.5581,-0.5768 0.6569,-1.0784 0.0429,-0.2175 0.2008,-0.3649 0.2008,-0.5848 0,-0.1833 -0.1317,-0.5351 -0.1734,-0.7311 -0.223,-0.3108 -0.6022,-0.64 -0.6022,-1.0327 0.68,-0.7657 0.7554,-2.0642 1.9526,-2.2024 0.609,-0.0703 0.8907,0.0193 1.3686,-0.4752 0.3329,-0.3446 0.6049,-0.7548 0.9581,-1.0693 0.8905,-0.0732 1.7503,0.0808 2.6552,-0.1005 0.9798,-0.2611 1.678,-2.4949 0.812,-3.2351 -0.8762,-0.7491 -0.0628,-0.6684 0.3741,-0.9961 0.4303,-0.3229 0.5635,-1.2372 0.6478,-1.7455l0.4651 -0.6854 0 0c1.5627,-0.9736 0.6567,-2.6868 2.9562,-2.6868 0.9712,0 1.5494,-1.5486 2.0621,-2.3029 0.8917,-1.3116 3.2679,-0.5384 4.4344,-1.316 0.3085,-0.2057 0.4258,-1.451 0.6387,-1.8643 0.2654,-0.5149 1.6084,-1.5813 2.0985,-1.9739 0.7824,-0.4125 0.9634,-1.3105 1.0949,-2.1019 0.1795,-1.08 2.5722,-1.9345 3.4382,-2.1891l0 0 4.3542 7.0046 1.0254 1.4858c-0.1146,0.5705 -0.469,0.993 -0.3505,1.5945 0.1987,1.0075 0.3684,1.9722 -0.4014,2.833 -0.4487,0.5017 -1.55,0.6946 -1.4782,1.3525 0.1804,1.6526 -1.6053,2.5821 -0.7482,3.9479 1.0563,1.6833 -0.8378,2.2269 -1.0401,3.6007 -0.1151,0.7817 0.4922,1.8099 0.1642,2.4674 -0.193,0.3869 -0.4099,1.0553 -0.2737,1.4988 0.1441,0.4693 0.5396,0.7721 0.5474,1.2611 0.021,1.3054 1.1705,3.3178 0.5475,4.2038 -0.9915,1.4102 1.0724,1.8436 -0.3467,2.8695 -0.7069,0.511 -1.5195,1.1258 -1.8431,1.974 -0.6012,1.5756 -1.3381,1.8405 -2.792,2.3943 -1.047,0.3987 -1.702,1.582 -2.5075,2.0773 -0.5582,0.3432 -1.189,0.3563 -2.0729,-0.4506 -0.7713,-0.7042 -1.7596,-1.1167 -2.4818,-1.8094 -1.1434,-1.0966 -1.3827,-1.3259 -2.865,-1.0601 -0.6792,0.1218 -1.4298,0.4554 -1.6423,1.2063 -0.1619,0.5723 -0.0685,1.2625 -0.3285,1.7912 -0.2579,0.5244 -2.4211,2.2846 -2.9745,2.2846 -1.0707,0 -1.4964,-1.0145 -2.4088,-1.1149 -0.9519,-0.1048 -3.3935,-0.5932 -3.9782,0.3838 -0.6288,1.0507 -1.1306,0.4222 -2.1165,0.5118 -0.2223,0.0202 -0.3929,0.0504 -0.54,0.0829l0 0c-0.3761,0.0832 -0.601,0.1825 -1.1572,0.173 -0.6223,-0.0106 -1.0088,-0.1113 -1.5693,-0.3473 -1.1331,-0.4771 -2.338,-0.1921 -2.6826,-1.6541 -0.1829,-0.7759 -0.8913,-0.7902 -1.2956,-1.4165 -0.282,-0.4369 -0.2361,-0.7002 -0.7573,-0.9047 -0.5725,-0.2246 -1.3133,0.1122 -1.7428,-0.393 -0.2779,-0.3269 -0.1958,-0.8589 -0.4106,-1.2246 -0.182,-0.3098 -0.4312,-0.5925 -0.5839,-0.923 -0.2739,-0.5927 -0.0579,-1.2687 -0.1984,-1.8989l0 0z"
       id="Kirehe"
       inkscape:label="" /><path
       class="fil0 str0"
       d="M178.263 115.948c1.3086,-0.0641 1.8688,0.196 2.5913,1.2429 0.5046,0.731 1.389,0.39 2.062,0.1828 0.4132,-0.1273 0.7734,-0.9644 1.1497,-1.2612 0.3089,-0.2435 0.7256,0.4536 1.0219,0.658 0.6683,0.4612 1.9517,0.7367 2.1351,1.517 0.1103,0.4696 0.0375,1.9135 0.3102,2.2116 0.4507,0.4928 2.1489,-0.2012 2.7008,1.0418 0.5869,1.3215 0.8608,2.5843 2.6642,2.1019 0.2956,-0.0869 0.4924,-0.2889 0.7847,-0.4021 0.3419,-0.1323 0.6448,-0.2135 1.0037,-0.2741 0.4286,-0.0723 0.8435,0.1868 1.2044,0.3472l0 0 -0.4651 0.6854c-0.0843,0.5083 -0.2175,1.4226 -0.6478,1.7455 -0.4369,0.3277 -1.2503,0.247 -0.3741,0.9961 0.866,0.7402 0.1678,2.974 -0.812,3.2351 -0.9049,0.1813 -1.7647,0.0273 -2.6552,0.1005 -0.3532,0.3145 -0.6252,0.7247 -0.9581,1.0693 -0.4779,0.4945 -0.7596,0.4049 -1.3686,0.4752 -1.1972,0.1382 -1.2726,1.4367 -1.9526,2.2024 0,0.3927 0.3792,0.7219 0.6022,1.0327 0.0417,0.196 0.1734,0.5478 0.1734,0.7311 0,0.2199 -0.1579,0.3673 -0.2008,0.5848 -0.0988,0.5016 -0.1245,0.8119 -0.6569,1.0784 -1.428,0.7146 -2.5366,1.9851 -3.8048,2.9244 -0.3947,0.3155 -1.2386,0.8837 -1.7154,1.0144 -0.5382,0.1476 -0.6351,-0.0522 -0.885,-0.4752 -0.1355,-0.2292 -1.7558,-1.2028 -1.9618,-1.0236 -0.2943,0.2558 -0.2724,1.2642 -0.3832,1.6816 -0.1965,0.7407 -0.7143,1.0052 -1.4507,1.0052l-0.7094 0.3035 0 0c-0.02,-0.0899 -0.0474,-0.1792 -0.0845,-0.2669 -0.2144,-0.5075 -0.9976,-0.0565 -1.25,0.1736 -0.7636,0.6962 -1.4396,0.65 -2.2537,0.1279 -0.5268,-0.3379 -0.8232,-1.0253 -1.542,-1.124 -1.2324,-0.1694 -2.7483,1.1084 -3.0384,2.239 -0.1033,0.403 -0.1741,1.5562 -0.7253,1.7172 -0.1921,0.0342 -0.4255,0.1279 -0.6695,0.226l0 0 -0.2202 -1.0933c-0.0318,-0.7444 -0.3649,-2.0244 -0.9854,-2.4949 -0.6224,-0.4718 -1.5343,-1.2385 -1.9343,-1.91 -0.3282,-0.5512 -0.3209,-0.9529 -0.4106,-1.5536 0,-0.6986 0.1005,-1.1908 0.3011,-1.846 0.1252,-0.4089 0.3582,-0.9822 0.1825,-1.3982 -0.0926,-0.2191 -0.2574,-0.6053 -0.2738,-0.8316 -0.0326,-0.4474 0.002,-0.8791 -0.0182,-1.316 0.0982,-1.6946 -1.074,-1.9662 -2.4909,-1.6358 -0.5395,0.1257 -1.1181,0.0244 -1.6607,-0.0457 -0.8939,-0.1154 -0.8587,-0.1265 -1.2226,-0.8865 -0.3684,-0.7696 -0.7159,-1.4871 -1.3778,-2.0653 -0.5762,-0.5032 0.733,-1.2207 1.0858,-1.7181 0.1997,-0.2817 -0.4895,-1.0234 -0.6022,-1.3342l0.3832 -1.2977 0 0c0.352,-0.0381 0.4305,0.3107 0.7026,0.3107l2.8924 -2.1567c1.0961,-0.8173 2.1512,-1.762 3.4125,-2.3304 0.8921,-0.3098 1.525,-0.6932 2.5,-0.7951 0.6328,-0.0662 1.39,-0.1158 2.0256,-0.0548 0.8794,0.0843 1.539,0.6704 2.4088,0.7768 0.765,0.0935 2.1775,0.044 2.7008,-0.6123 0.7689,-0.5448 1.2519,-1.7594 2.126,-2.0836 0.8711,-0.3232 1.7219,-0.0596 2.354,-0.9047l0.2827 -0.5484 0 0z"
       id="Ngoma"
       inkscape:label="" /><path
       class="fil0 str0"
       d="M171.73 96.1903l0.9673 -1.2429 1.4507 -1.8094c0.5504,-0.6864 0.437,-2.0397 0.4654,-2.8878 0.015,-0.4507 0.3024,-0.7553 0.6478,-1.0053 0.3822,-0.2768 0.4836,-0.8791 0.4836,-1.3251 0.2793,-1.0555 -0.6988,-2.5155 -1.1223,-3.4361 -0.7759,-1.687 -0.05,-2.472 1.0037,-3.7378 0.4431,-0.2154 0.8062,-1.0045 1.2591,-1.0418l1.3322 -0.1096c0.4671,-0.0384 0.5207,-0.4967 0.8394,-0.7403 0.4824,-0.3689 1.7497,-0.2361 2.3541,-0.2924 0.3818,-0.0356 1.0381,0.1338 0.812,-0.4387 -0.224,-0.567 -0.7208,-1.1924 -0.7208,-1.8186 0,-0.3601 2.1746,-0.1086 2.5457,-0.1736 1.1641,-0.299 1.638,-0.5568 2.6095,-1.2794 1.0941,-0.8137 1.6108,-1.5538 2.9198,-2.1019 1.2416,-0.5198 3.2232,-0.6306 4.5621,-0.6306 0.7405,0.2285 1.5645,0.1795 2.3085,0.5026l3.3029 1.4348c1.1248,0.4885 2.6651,0.5756 3.8596,0.4113 1.6582,-0.2489 2.4664,0.8883 3.8596,1.4347 1.1719,0.4597 3.6217,0.9403 4.8938,0.9403l0 0 0.3368 0.5467c-0.2702,0.2241 -0.6068,0.4456 -0.7327,0.7611 -0.3693,0.925 0.6569,2.3355 0.6569,3.3265 0,1.0669 -0.8704,1.9191 -0.8394,2.9244 0.0347,1.1252 0.7201,1.7507 0.5474,2.9244 -0.1415,0.9622 -0.877,1.6297 -0.5839,2.6868 0.1532,0.5529 0.5343,1.5432 0.5109,2.0836 -0.0149,0.346 -0.0833,0.6697 -0.0365,1.0235 0.0626,0.4732 -0.3106,0.8371 -0.4201,1.2977 -0.1664,0.6997 0.7014,0.9238 0.8577,1.5901 0.1277,0.5443 -0.1105,1.2267 -0.4562,1.6267 -0.2544,0.2944 -0.8439,0.7465 -0.9307,1.1149 -0.1011,0.4294 0.292,1.1895 0.292,1.6633 0,0.6925 -0.6423,1.9175 -1.3321,2.1019 -0.6452,0.1725 -2.7812,0.9892 -1.6789,2.0288 0.4536,0.4278 0.8099,-0.2079 1.2957,-0.1097l2.7633 4.4456 0 0c-0.866,0.2546 -3.2587,1.1091 -3.4382,2.1891 -0.1315,0.7914 -0.3125,1.6894 -1.0949,2.1019 -0.4901,0.3926 -1.8331,1.459 -2.0985,1.9739 -0.2129,0.4133 -0.3302,1.6586 -0.6387,1.8643 -1.1665,0.7776 -3.5427,0.0044 -4.4344,1.316 -0.5127,0.7543 -1.0909,2.3029 -2.0621,2.3029 -2.2995,0 -1.3935,1.7132 -2.9562,2.6868l0 0c-0.3609,-0.1604 -0.7758,-0.4195 -1.2044,-0.3472 -0.3589,0.0606 -0.6618,0.1418 -1.0037,0.2741 -0.2923,0.1132 -0.4891,0.3152 -0.7847,0.4021 -1.8034,0.4824 -2.0773,-0.7804 -2.6642,-2.1019 -0.5519,-1.243 -2.2501,-0.549 -2.7008,-1.0418 -0.2727,-0.2981 -0.1999,-1.742 -0.3102,-2.2116 -0.1834,-0.7803 -1.4668,-1.0558 -2.1351,-1.517 -0.2963,-0.2044 -0.713,-0.9015 -1.0219,-0.658 -0.3763,0.2968 -0.7365,1.1339 -1.1497,1.2612 -0.673,0.2072 -1.5574,0.5482 -2.062,-0.1828 -0.7225,-1.0469 -1.2827,-1.307 -2.5913,-1.2429l0 0 -0.0183 -1.06c-0.2164,-1.2323 -0.2436,-2.1339 -0.8029,-3.2717 -0.5723,-1.1644 -1.2264,-1.3864 -1.0766,-2.9061 0.2615,-2.6518 1.2398,-3.4453 -0.5657,-5.8305 0,-0.5999 0.0011,-1.7898 0.7481,-1.9191 0.8533,-0.1478 1.6845,0.0728 1.8979,-0.9321 0.1322,-0.623 0.2164,-1.1453 0.1095,-1.7912 -0.5778,-3.4895 -4.5637,-1.8084 -6.8249,-2.0471l0 0z"
       id="Kayonza"
       inkscape:label="" /><line
       class="fil1 str1"
       x1="129.193"
       y1="103.227"
       x2="130.233"
       y2="102.131"
       id="line73" /></g></svg>